<svg xmlns="http://www.w3.org/2000/svg" xmlns:xlink="http://www.w3.org/1999/xlink" contentStyleType="text/css" data-diagram-type="CLASS" height="754.5px" preserveAspectRatio="none" style="width:1789px;height:754px;background:#FFFFFF;" version="1.1" viewBox="0 0 1789 754" width="1789.5px" zoomAndPan="magnify"><defs/><g><!--cluster Model--><g class="cluster" data-entity="Model" data-source-line="2" data-uid="ent0002" id="cluster_Model"><path d="M12.75,9.441 L74.9188,9.441 A5.625,5.625 0 0 1 78.6688,13.191 L89.1688,43.6409 L1775.25,43.6409 A3.75,3.75 0 0 1 1779,47.3909 L1779,740.691 A3.75,3.75 0 0 1 1775.25,744.441 L12.75,744.441 A3.75,3.75 0 0 1 9,740.691 L9,13.191 A3.75,3.75 0 0 1 12.75,9.441" fill="none" style="stroke:#000000;stroke-width:2.25;"/><line style="stroke:#000000;stroke-width:2.25;" x1="9" x2="89.1688" y1="43.6409" y2="43.6409"/><text fill="#000000" font-family="sans-serif" font-size="21" font-weight="bold" lengthAdjust="spacing" textLength="60.6688" x="15" y="31.9499">Model</text></g><!--cluster States--><g class="cluster" data-entity="States" data-source-line="10" data-uid="ent0005" id="cluster_States"><path d="M447.75,235.941 L512.2708,235.941 A5.625,5.625 0 0 1 516.0208,239.691 L526.5208,270.1409 L1044.75,270.1409 A3.75,3.75 0 0 1 1048.5,273.8909 L1048.5,542.691 A3.75,3.75 0 0 1 1044.75,546.441 L447.75,546.441 A3.75,3.75 0 0 1 444,542.691 L444,239.691 A3.75,3.75 0 0 1 447.75,235.941" fill="none" style="stroke:#000000;stroke-width:2.25;"/><line style="stroke:#000000;stroke-width:2.25;" x1="444" x2="526.5208" y1="270.1409" y2="270.1409"/><text fill="#000000" font-family="sans-serif" font-size="21" font-weight="bold" lengthAdjust="spacing" textLength="63.0208" x="450" y="258.4499">States</text></g><!--cluster rules--><g class="cluster" data-entity="rules" data-source-line="28" data-uid="ent0013" id="cluster_rules"><path d="M1088.25,235.941 L1139.9398,235.941 A5.625,5.625 0 0 1 1143.6898,239.691 L1154.1898,270.1409 L1511.25,270.1409 A3.75,3.75 0 0 1 1515,273.8909 L1515,704.691 A3.75,3.75 0 0 1 1511.25,708.441 L1088.25,708.441 A3.75,3.75 0 0 1 1084.5,704.691 L1084.5,239.691 A3.75,3.75 0 0 1 1088.25,235.941" fill="none" style="stroke:#000000;stroke-width:2.25;"/><line style="stroke:#000000;stroke-width:2.25;" x1="1084.5" x2="1154.1898" y1="270.1409" y2="270.1409"/><text fill="#000000" font-family="sans-serif" font-size="21" font-weight="bold" lengthAdjust="spacing" textLength="50.1898" x="1090.5" y="258.4499">rules</text></g><!--cluster board--><g class="cluster" data-entity="board" data-source-line="52" data-uid="ent0025" id="cluster_board"><path d="M1554.75,235.941 L1614.5878,235.941 A5.625,5.625 0 0 1 1618.3378,239.691 L1628.8378,270.1409 L1739.25,270.1409 A3.75,3.75 0 0 1 1743,273.8909 L1743,542.691 A3.75,3.75 0 0 1 1739.25,546.441 L1554.75,546.441 A3.75,3.75 0 0 1 1551,542.691 L1551,239.691 A3.75,3.75 0 0 1 1554.75,235.941" fill="none" style="stroke:#000000;stroke-width:2.25;"/><line style="stroke:#000000;stroke-width:2.25;" x1="1551" x2="1628.8378" y1="270.1409" y2="270.1409"/><text fill="#000000" font-family="sans-serif" font-size="21" font-weight="bold" lengthAdjust="spacing" textLength="58.3378" x="1557" y="258.4499">board</text></g><!--cluster commends--><g class="cluster" data-entity="commends" data-source-line="62" data-uid="ent0029" id="cluster_commends"><path d="M48.75,73.941 L161.1086,73.941 A5.625,5.625 0 0 1 164.8586,77.691 L175.3586,108.1409 L284.25,108.1409 A3.75,3.75 0 0 1 288,111.8909 L288,380.691 A3.75,3.75 0 0 1 284.25,384.441 L48.75,384.441 A3.75,3.75 0 0 1 45,380.691 L45,77.691 A3.75,3.75 0 0 1 48.75,73.941" fill="none" style="stroke:#000000;stroke-width:2.25;"/><line style="stroke:#000000;stroke-width:2.25;" x1="45" x2="175.3586" y1="108.1409" y2="108.1409"/><text fill="#000000" font-family="sans-serif" font-size="21" font-weight="bold" lengthAdjust="spacing" textLength="110.8586" x="51" y="96.4499">commends</text></g><!--class Game--><g class="entity" data-entity="Game" data-source-line="4" data-uid="ent0003" id="entity_Game"><rect fill="#F1F1F1" height="72" rx="3.75" ry="3.75" style="stroke:#181818;stroke-width:0.75;" width="105.1828" x="683.91" y="126.441"/><ellipse cx="706.41" cy="150.441" fill="#ADD1B2" rx="16.5" ry="16.5" style="stroke:#181818;stroke-width:1.5;"/><path d="M698.91,152.1754 C698.91,155.9254 702.1209,158.6441 706.5038,158.6441 C708.3553,158.6441 710.1131,158.1988 711.2381,157.4254 C712.1522,156.7925 712.6444,156.1597 712.6444,155.5504 C712.6444,154.8472 712.0116,154.2379 711.2616,154.2379 C710.91,154.2379 710.5819,154.355 710.2772,154.6597 C709.6209,155.316 709.6209,155.316 709.3631,155.4566 C708.6834,155.8082 707.7225,156.0191 706.5741,156.0191 C703.5741,156.0191 701.6522,154.4957 701.6522,152.1285 L701.6522,150.5582 C701.6522,148.0035 703.4803,146.1988 706.035,146.1988 C706.9022,146.1988 707.7694,146.4097 708.4725,146.7847 C709.1756,147.1832 709.4334,147.4644 709.5272,148.0035 C709.7147,149.0113 710.0897,149.3863 710.8866,149.3863 C711.3084,149.3863 711.7303,149.1754 712.0116,148.8472 C712.1991,148.5894 712.2694,148.3316 712.2694,147.6754 L712.2694,145.6363 C712.2694,145.0035 712.2459,144.7925 712.0584,144.5347 C711.8006,144.1597 711.3788,143.9254 710.8866,143.9254 C710.4178,143.9254 710.1131,144.0894 709.785,144.4879 C708.0272,143.7379 707.3709,143.5738 705.9413,143.5738 C701.9334,143.5738 698.91,146.5972 698.91,150.5347 L698.91,152.1754 Z " fill="#000000"/><text fill="#000000" font-family="sans-serif" font-size="21" lengthAdjust="spacing" textLength="57.1828" x="727.41" y="157.3499">Game</text><line style="stroke:#181818;stroke-width:0.75;" x1="685.41" x2="787.5928" y1="174.441" y2="174.441"/><line style="stroke:#181818;stroke-width:0.75;" x1="685.41" x2="787.5928" y1="186.441" y2="186.441"/></g><!--class Player--><g class="entity" data-entity="Player" data-source-line="7" data-uid="ent0004" id="entity_Player"><rect fill="#F1F1F1" height="72" rx="3.75" ry="3.75" style="stroke:#181818;stroke-width:0.75;" width="107.5138" x="312.24" y="288.441"/><ellipse cx="334.74" cy="312.441" fill="#ADD1B2" rx="16.5" ry="16.5" style="stroke:#181818;stroke-width:1.5;"/><path d="M327.24,314.1754 C327.24,317.9254 330.4509,320.6441 334.8338,320.6441 C336.6853,320.6441 338.4431,320.1988 339.5681,319.4254 C340.4822,318.7925 340.9744,318.1597 340.9744,317.5504 C340.9744,316.8472 340.3416,316.2379 339.5916,316.2379 C339.24,316.2379 338.9119,316.355 338.6072,316.6597 C337.9509,317.316 337.9509,317.316 337.6931,317.4566 C337.0134,317.8082 336.0525,318.0191 334.9041,318.0191 C331.9041,318.0191 329.9822,316.4957 329.9822,314.1285 L329.9822,312.5582 C329.9822,310.0035 331.8103,308.1988 334.365,308.1988 C335.2322,308.1988 336.0994,308.4097 336.8025,308.7847 C337.5056,309.1832 337.7634,309.4644 337.8572,310.0035 C338.0447,311.0113 338.4197,311.3863 339.2166,311.3863 C339.6384,311.3863 340.0603,311.1754 340.3416,310.8472 C340.5291,310.5894 340.5994,310.3316 340.5994,309.6754 L340.5994,307.6363 C340.5994,307.0035 340.5759,306.7925 340.3884,306.5347 C340.1306,306.1597 339.7088,305.9254 339.2166,305.9254 C338.7478,305.9254 338.4431,306.0894 338.115,306.4879 C336.3572,305.7379 335.7009,305.5738 334.2713,305.5738 C330.2634,305.5738 327.24,308.5972 327.24,312.5347 L327.24,314.1754 Z " fill="#000000"/><text fill="#000000" font-family="sans-serif" font-size="21" lengthAdjust="spacing" textLength="59.5138" x="355.74" y="319.3499">Player</text><line style="stroke:#181818;stroke-width:0.75;" x1="313.74" x2="418.2538" y1="336.441" y2="336.441"/><line style="stroke:#181818;stroke-width:0.75;" x1="313.74" x2="418.2538" y1="348.441" y2="348.441"/></g><!--class GameState--><g class="entity" data-entity="GameState" data-source-line="11" data-uid="ent0006" id="entity_GameState"><rect fill="#F1F1F1" height="72" rx="3.75" ry="3.75" style="stroke:#181818;stroke-width:0.75;" width="154.2176" x="659.385" y="288.441"/><ellipse cx="681.885" cy="312.441" fill="#B4A7E5" rx="16.5" ry="16.5" style="stroke:#181818;stroke-width:1.5;"/><path d="M683.4084,308.1754 L685.8928,308.1754 C686.4788,308.1754 686.7834,308.1285 687.0178,308.0113 C687.4163,307.7535 687.6741,307.3082 687.6741,306.8629 C687.6741,306.441 687.4631,306.066 687.1116,305.8082 C686.8303,305.6207 686.5959,305.5504 685.8928,305.5504 L678.1819,305.5504 C677.5256,305.5504 677.3147,305.5738 677.0569,305.7379 C676.6584,305.9957 676.4006,306.4175 676.4006,306.8629 C676.4006,307.2847 676.6116,307.7066 676.9631,307.941 C677.2444,308.1285 677.5256,308.1754 678.1819,308.1754 L680.6663,308.1754 L680.6663,317.316 L678.1819,317.316 C677.5256,317.316 677.3147,317.3394 677.0569,317.5035 C676.6584,317.7379 676.4006,318.1832 676.4006,318.605 C676.4006,319.5191 677.01,319.941 678.1819,319.941 L685.8928,319.941 C687.0647,319.941 687.6741,319.5191 687.6741,318.605 C687.6741,318.2066 687.4631,317.8316 687.1116,317.5738 C686.8303,317.3629 686.5725,317.316 685.8928,317.316 L683.4084,317.316 L683.4084,308.1754 Z " fill="#000000"/><text fill="#000000" font-family="sans-serif" font-size="21" font-style="italic" lengthAdjust="spacing" textLength="106.2176" x="702.885" y="321.3659">GameState</text><line style="stroke:#181818;stroke-width:0.75;" x1="660.885" x2="812.1026" y1="336.441" y2="336.441"/><line style="stroke:#181818;stroke-width:0.75;" x1="660.885" x2="812.1026" y1="348.441" y2="348.441"/></g><!--class WhiteTurn--><g class="entity" data-entity="WhiteTurn" data-source-line="14" data-uid="ent0007" id="entity_WhiteTurn"><rect fill="#F1F1F1" height="72" rx="3.75" ry="3.75" style="stroke:#181818;stroke-width:0.75;" width="144.8516" x="467.58" y="450.441"/><ellipse cx="490.08" cy="474.441" fill="#ADD1B2" rx="16.5" ry="16.5" style="stroke:#181818;stroke-width:1.5;"/><path d="M482.58,476.1754 C482.58,479.9254 485.7909,482.6441 490.1738,482.6441 C492.0253,482.6441 493.7831,482.1988 494.9081,481.4254 C495.8222,480.7925 496.3144,480.1597 496.3144,479.5504 C496.3144,478.8472 495.6816,478.2379 494.9316,478.2379 C494.58,478.2379 494.2519,478.355 493.9472,478.6597 C493.2909,479.316 493.2909,479.316 493.0331,479.4566 C492.3534,479.8082 491.3925,480.0191 490.2441,480.0191 C487.2441,480.0191 485.3222,478.4957 485.3222,476.1285 L485.3222,474.5582 C485.3222,472.0035 487.1503,470.1988 489.705,470.1988 C490.5722,470.1988 491.4394,470.4097 492.1425,470.7847 C492.8456,471.1832 493.1034,471.4644 493.1972,472.0035 C493.3847,473.0113 493.7597,473.3863 494.5566,473.3863 C494.9784,473.3863 495.4003,473.1754 495.6816,472.8472 C495.8691,472.5894 495.9394,472.3316 495.9394,471.6754 L495.9394,469.6363 C495.9394,469.0035 495.9159,468.7925 495.7284,468.5347 C495.4706,468.1597 495.0488,467.9254 494.5566,467.9254 C494.0878,467.9254 493.7831,468.0894 493.455,468.4879 C491.6972,467.7379 491.0409,467.5738 489.6113,467.5738 C485.6034,467.5738 482.58,470.5972 482.58,474.5347 L482.58,476.1754 Z " fill="#000000"/><text fill="#000000" font-family="sans-serif" font-size="21" lengthAdjust="spacing" textLength="96.8516" x="511.08" y="481.3499">WhiteTurn</text><line style="stroke:#181818;stroke-width:0.75;" x1="469.08" x2="610.9316" y1="498.441" y2="498.441"/><line style="stroke:#181818;stroke-width:0.75;" x1="469.08" x2="610.9316" y1="510.441" y2="510.441"/></g><!--class BlackTurn--><g class="entity" data-entity="BlackTurn" data-source-line="17" data-uid="ent0008" id="entity_BlackTurn"><rect fill="#F1F1F1" height="72" rx="3.75" ry="3.75" style="stroke:#181818;stroke-width:0.75;" width="142.5206" x="665.235" y="450.441"/><ellipse cx="687.735" cy="474.441" fill="#ADD1B2" rx="16.5" ry="16.5" style="stroke:#181818;stroke-width:1.5;"/><path d="M680.235,476.1754 C680.235,479.9254 683.4459,482.6441 687.8288,482.6441 C689.6803,482.6441 691.4381,482.1988 692.5631,481.4254 C693.4772,480.7925 693.9694,480.1597 693.9694,479.5504 C693.9694,478.8472 693.3366,478.2379 692.5866,478.2379 C692.235,478.2379 691.9069,478.355 691.6022,478.6597 C690.9459,479.316 690.9459,479.316 690.6881,479.4566 C690.0084,479.8082 689.0475,480.0191 687.8991,480.0191 C684.8991,480.0191 682.9772,478.4957 682.9772,476.1285 L682.9772,474.5582 C682.9772,472.0035 684.8053,470.1988 687.36,470.1988 C688.2272,470.1988 689.0944,470.4097 689.7975,470.7847 C690.5006,471.1832 690.7584,471.4644 690.8522,472.0035 C691.0397,473.0113 691.4147,473.3863 692.2116,473.3863 C692.6334,473.3863 693.0553,473.1754 693.3366,472.8472 C693.5241,472.5894 693.5944,472.3316 693.5944,471.6754 L693.5944,469.6363 C693.5944,469.0035 693.5709,468.7925 693.3834,468.5347 C693.1256,468.1597 692.7038,467.9254 692.2116,467.9254 C691.7428,467.9254 691.4381,468.0894 691.11,468.4879 C689.3522,467.7379 688.6959,467.5738 687.2663,467.5738 C683.2584,467.5738 680.235,470.5972 680.235,474.5347 L680.235,476.1754 Z " fill="#000000"/><text fill="#000000" font-family="sans-serif" font-size="21" lengthAdjust="spacing" textLength="94.5206" x="708.735" y="481.3499">BlackTurn</text><line style="stroke:#181818;stroke-width:0.75;" x1="666.735" x2="806.2556" y1="498.441" y2="498.441"/><line style="stroke:#181818;stroke-width:0.75;" x1="666.735" x2="806.2556" y1="510.441" y2="510.441"/></g><!--class EndOfGame--><g class="entity" data-entity="EndOfGame" data-source-line="20" data-uid="ent0009" id="entity_EndOfGame"><rect fill="#F1F1F1" height="72" rx="3.75" ry="3.75" style="stroke:#181818;stroke-width:0.75;" width="164.7175" x="859.635" y="450.441"/><ellipse cx="882.135" cy="474.441" fill="#ADD1B2" rx="16.5" ry="16.5" style="stroke:#181818;stroke-width:1.5;"/><path d="M874.635,476.1754 C874.635,479.9254 877.8459,482.6441 882.2288,482.6441 C884.0803,482.6441 885.8381,482.1988 886.9631,481.4254 C887.8772,480.7925 888.3694,480.1597 888.3694,479.5504 C888.3694,478.8472 887.7366,478.2379 886.9866,478.2379 C886.635,478.2379 886.3069,478.355 886.0022,478.6597 C885.3459,479.316 885.3459,479.316 885.0881,479.4566 C884.4084,479.8082 883.4475,480.0191 882.2991,480.0191 C879.2991,480.0191 877.3772,478.4957 877.3772,476.1285 L877.3772,474.5582 C877.3772,472.0035 879.2053,470.1988 881.76,470.1988 C882.6272,470.1988 883.4944,470.4097 884.1975,470.7847 C884.9006,471.1832 885.1584,471.4644 885.2522,472.0035 C885.4397,473.0113 885.8147,473.3863 886.6116,473.3863 C887.0334,473.3863 887.4553,473.1754 887.7366,472.8472 C887.9241,472.5894 887.9944,472.3316 887.9944,471.6754 L887.9944,469.6363 C887.9944,469.0035 887.9709,468.7925 887.7834,468.5347 C887.5256,468.1597 887.1038,467.9254 886.6116,467.9254 C886.1428,467.9254 885.8381,468.0894 885.51,468.4879 C883.7522,467.7379 883.0959,467.5738 881.6663,467.5738 C877.6584,467.5738 874.635,470.5972 874.635,474.5347 L874.635,476.1754 Z " fill="#000000"/><text fill="#000000" font-family="sans-serif" font-size="21" lengthAdjust="spacing" textLength="116.7175" x="903.135" y="481.3499">EndOfGame</text><line style="stroke:#181818;stroke-width:0.75;" x1="861.135" x2="1022.8525" y1="498.441" y2="498.441"/><line style="stroke:#181818;stroke-width:0.75;" x1="861.135" x2="1022.8525" y1="510.441" y2="510.441"/></g><!--class RuleSet--><g class="entity" data-entity="RuleSet" data-source-line="29" data-uid="ent0014" id="entity_RuleSet"><rect fill="#F1F1F1" height="72" rx="3.75" ry="3.75" style="stroke:#181818;stroke-width:0.75;" width="122.6967" x="1183.65" y="288.441"/><ellipse cx="1206.15" cy="312.441" fill="#ADD1B2" rx="16.5" ry="16.5" style="stroke:#181818;stroke-width:1.5;"/><path d="M1198.65,314.1754 C1198.65,317.9254 1201.8609,320.6441 1206.2438,320.6441 C1208.0953,320.6441 1209.8531,320.1988 1210.9781,319.4254 C1211.8922,318.7925 1212.3844,318.1597 1212.3844,317.5504 C1212.3844,316.8472 1211.7516,316.2379 1211.0016,316.2379 C1210.65,316.2379 1210.3219,316.355 1210.0172,316.6597 C1209.3609,317.316 1209.3609,317.316 1209.1031,317.4566 C1208.4234,317.8082 1207.4625,318.0191 1206.3141,318.0191 C1203.3141,318.0191 1201.3922,316.4957 1201.3922,314.1285 L1201.3922,312.5582 C1201.3922,310.0035 1203.2203,308.1988 1205.775,308.1988 C1206.6422,308.1988 1207.5094,308.4097 1208.2125,308.7847 C1208.9156,309.1832 1209.1734,309.4644 1209.2672,310.0035 C1209.4547,311.0113 1209.8297,311.3863 1210.6266,311.3863 C1211.0484,311.3863 1211.4703,311.1754 1211.7516,310.8472 C1211.9391,310.5894 1212.0094,310.3316 1212.0094,309.6754 L1212.0094,307.6363 C1212.0094,307.0035 1211.9859,306.7925 1211.7984,306.5347 C1211.5406,306.1597 1211.1188,305.9254 1210.6266,305.9254 C1210.1578,305.9254 1209.8531,306.0894 1209.525,306.4879 C1207.7672,305.7379 1207.1109,305.5738 1205.6813,305.5738 C1201.6734,305.5738 1198.65,308.5972 1198.65,312.5347 L1198.65,314.1754 Z " fill="#000000"/><text fill="#000000" font-family="sans-serif" font-size="21" lengthAdjust="spacing" textLength="74.6967" x="1227.15" y="319.3499">RuleSet</text><line style="stroke:#181818;stroke-width:0.75;" x1="1185.15" x2="1304.8467" y1="336.441" y2="336.441"/><line style="stroke:#181818;stroke-width:0.75;" x1="1185.15" x2="1304.8467" y1="348.441" y2="348.441"/></g><!--class Iterator--><g class="entity" data-entity="Iterator" data-source-line="32" data-uid="ent0015" id="entity_Iterator"><rect fill="#F1F1F1" height="72" rx="3.75" ry="3.75" style="stroke:#181818;stroke-width:0.75;" width="114.5277" x="1108.23" y="450.441"/><ellipse cx="1130.73" cy="474.441" fill="#B4A7E5" rx="16.5" ry="16.5" style="stroke:#181818;stroke-width:1.5;"/><path d="M1132.2534,470.1754 L1134.7378,470.1754 C1135.3238,470.1754 1135.6284,470.1285 1135.8628,470.0113 C1136.2613,469.7535 1136.5191,469.3082 1136.5191,468.8629 C1136.5191,468.441 1136.3081,468.066 1135.9566,467.8082 C1135.6753,467.6207 1135.4409,467.5504 1134.7378,467.5504 L1127.0269,467.5504 C1126.3706,467.5504 1126.1597,467.5738 1125.9019,467.7379 C1125.5034,467.9957 1125.2456,468.4175 1125.2456,468.8629 C1125.2456,469.2847 1125.4566,469.7066 1125.8081,469.941 C1126.0894,470.1285 1126.3706,470.1754 1127.0269,470.1754 L1129.5113,470.1754 L1129.5113,479.316 L1127.0269,479.316 C1126.3706,479.316 1126.1597,479.3394 1125.9019,479.5035 C1125.5034,479.7379 1125.2456,480.1832 1125.2456,480.605 C1125.2456,481.5191 1125.855,481.941 1127.0269,481.941 L1134.7378,481.941 C1135.9097,481.941 1136.5191,481.5191 1136.5191,480.605 C1136.5191,480.2066 1136.3081,479.8316 1135.9566,479.5738 C1135.6753,479.3629 1135.4175,479.316 1134.7378,479.316 L1132.2534,479.316 L1132.2534,470.1754 Z " fill="#000000"/><text fill="#000000" font-family="sans-serif" font-size="21" font-style="italic" lengthAdjust="spacing" textLength="66.5277" x="1151.73" y="483.3659">Iterator</text><line style="stroke:#181818;stroke-width:0.75;" x1="1109.73" x2="1221.2577" y1="498.441" y2="498.441"/><line style="stroke:#181818;stroke-width:0.75;" x1="1109.73" x2="1221.2577" y1="510.441" y2="510.441"/></g><!--class Rule--><g class="entity" data-entity="Rule" data-source-line="35" data-uid="ent0016" id="entity_Rule"><rect fill="#F1F1F1" height="72" rx="3.75" ry="3.75" style="stroke:#181818;stroke-width:0.75;" width="91.1758" x="1275.915" y="450.441"/><ellipse cx="1298.415" cy="474.441" fill="#B4A7E5" rx="16.5" ry="16.5" style="stroke:#181818;stroke-width:1.5;"/><path d="M1299.9384,470.1754 L1302.4228,470.1754 C1303.0088,470.1754 1303.3134,470.1285 1303.5478,470.0113 C1303.9463,469.7535 1304.2041,469.3082 1304.2041,468.8629 C1304.2041,468.441 1303.9931,468.066 1303.6416,467.8082 C1303.3603,467.6207 1303.1259,467.5504 1302.4228,467.5504 L1294.7119,467.5504 C1294.0556,467.5504 1293.8447,467.5738 1293.5869,467.7379 C1293.1884,467.9957 1292.9306,468.4175 1292.9306,468.8629 C1292.9306,469.2847 1293.1416,469.7066 1293.4931,469.941 C1293.7744,470.1285 1294.0556,470.1754 1294.7119,470.1754 L1297.1963,470.1754 L1297.1963,479.316 L1294.7119,479.316 C1294.0556,479.316 1293.8447,479.3394 1293.5869,479.5035 C1293.1884,479.7379 1292.9306,480.1832 1292.9306,480.605 C1292.9306,481.5191 1293.54,481.941 1294.7119,481.941 L1302.4228,481.941 C1303.5947,481.941 1304.2041,481.5191 1304.2041,480.605 C1304.2041,480.2066 1303.9931,479.8316 1303.6416,479.5738 C1303.3603,479.3629 1303.1025,479.316 1302.4228,479.316 L1299.9384,479.316 L1299.9384,470.1754 Z " fill="#000000"/><text fill="#000000" font-family="sans-serif" font-size="21" font-style="italic" lengthAdjust="spacing" textLength="43.1758" x="1319.415" y="483.3659">Rule</text><line style="stroke:#181818;stroke-width:0.75;" x1="1277.415" x2="1365.5908" y1="498.441" y2="498.441"/><line style="stroke:#181818;stroke-width:0.75;" x1="1277.415" x2="1365.5908" y1="510.441" y2="510.441"/></g><!--class SimpleRule--><g class="entity" data-entity="SimpleRule" data-source-line="38" data-uid="ent0017" id="entity_SimpleRule"><rect fill="#F1F1F1" height="72" rx="3.75" ry="3.75" style="stroke:#181818;stroke-width:0.75;" width="155.3516" x="1108.83" y="612.441"/><ellipse cx="1131.33" cy="636.441" fill="#A9DCDF" rx="16.5" ry="16.5" style="stroke:#181818;stroke-width:1.5;"/><path d="M1133.6269,639.3472 L1134.1191,640.5425 L1133.6972,640.5425 C1133.0175,640.5425 1132.83,640.5894 1132.5722,640.7535 C1132.1503,640.9644 1131.8925,641.4097 1131.8925,641.855 C1131.8925,642.3004 1132.1034,642.6754 1132.455,642.9332 C1132.7128,643.1207 1133.0644,643.191 1133.6972,643.191 L1137.2363,643.191 C1137.7753,643.191 1138.1503,643.1441 1138.3613,643.0035 C1138.7597,642.7925 1139.0175,642.3238 1139.0175,641.855 C1139.0175,641.4566 1138.8066,641.0582 1138.455,640.8004 C1138.1738,640.6129 1137.9394,640.566 1137.2597,640.5425 L1132.1738,628.8004 L1126.5956,628.8004 C1125.9159,628.8004 1125.705,628.8238 1125.4472,628.9879 C1125.0488,629.2457 1124.7909,629.6675 1124.7909,630.1129 C1124.7909,630.5347 1125.0019,630.9332 1125.3769,631.191 C1125.6347,631.3785 1125.9159,631.4254 1126.5956,631.4254 L1128.0488,631.4254 L1124.1816,640.5425 C1123.0566,640.5425 1122.4472,640.9879 1122.4472,641.855 C1122.4472,642.7691 1123.0331,643.191 1124.2284,643.191 L1127.6269,643.191 C1128.1659,643.191 1128.5409,643.1441 1128.7519,643.0035 C1129.1503,642.7691 1129.4081,642.3238 1129.4081,641.855 C1129.4081,641.4566 1129.1972,641.0582 1128.8456,640.8004 C1128.5644,640.5894 1128.33,640.5425 1127.6269,640.5425 L1127.1816,640.5425 L1127.6972,639.3472 L1133.6269,639.3472 Z M1132.4784,636.7222 L1128.7988,636.7222 L1130.6503,632.4097 L1132.4784,636.7222 Z " fill="#000000"/><text fill="#000000" font-family="sans-serif" font-size="21" font-style="italic" lengthAdjust="spacing" textLength="107.3516" x="1152.33" y="645.3659">SimpleRule</text><line style="stroke:#181818;stroke-width:0.75;" x1="1110.33" x2="1262.6816" y1="660.441" y2="660.441"/><line style="stroke:#181818;stroke-width:0.75;" x1="1110.33" x2="1262.6816" y1="672.441" y2="672.441"/></g><!--class ComplexRule--><g class="entity" data-entity="ComplexRule" data-source-line="41" data-uid="ent0018" id="entity_ComplexRule"><rect fill="#F1F1F1" height="72" rx="3.75" ry="3.75" style="stroke:#181818;stroke-width:0.75;" width="174.0205" x="1316.985" y="612.441"/><ellipse cx="1339.485" cy="636.441" fill="#A9DCDF" rx="16.5" ry="16.5" style="stroke:#181818;stroke-width:1.5;"/><path d="M1341.7819,639.3472 L1342.2741,640.5425 L1341.8522,640.5425 C1341.1725,640.5425 1340.985,640.5894 1340.7272,640.7535 C1340.3053,640.9644 1340.0475,641.4097 1340.0475,641.855 C1340.0475,642.3004 1340.2584,642.6754 1340.61,642.9332 C1340.8678,643.1207 1341.2194,643.191 1341.8522,643.191 L1345.3913,643.191 C1345.9303,643.191 1346.3053,643.1441 1346.5163,643.0035 C1346.9147,642.7925 1347.1725,642.3238 1347.1725,641.855 C1347.1725,641.4566 1346.9616,641.0582 1346.61,640.8004 C1346.3288,640.6129 1346.0944,640.566 1345.4147,640.5425 L1340.3288,628.8004 L1334.7506,628.8004 C1334.0709,628.8004 1333.86,628.8238 1333.6022,628.9879 C1333.2038,629.2457 1332.9459,629.6675 1332.9459,630.1129 C1332.9459,630.5347 1333.1569,630.9332 1333.5319,631.191 C1333.7897,631.3785 1334.0709,631.4254 1334.7506,631.4254 L1336.2038,631.4254 L1332.3366,640.5425 C1331.2116,640.5425 1330.6022,640.9879 1330.6022,641.855 C1330.6022,642.7691 1331.1881,643.191 1332.3834,643.191 L1335.7819,643.191 C1336.3209,643.191 1336.6959,643.1441 1336.9069,643.0035 C1337.3053,642.7691 1337.5631,642.3238 1337.5631,641.855 C1337.5631,641.4566 1337.3522,641.0582 1337.0006,640.8004 C1336.7194,640.5894 1336.485,640.5425 1335.7819,640.5425 L1335.3366,640.5425 L1335.8522,639.3472 L1341.7819,639.3472 Z M1340.6334,636.7222 L1336.9538,636.7222 L1338.8053,632.4097 L1340.6334,636.7222 Z " fill="#000000"/><text fill="#000000" font-family="sans-serif" font-size="21" font-style="italic" lengthAdjust="spacing" textLength="126.0205" x="1360.485" y="645.3659">ComplexRule</text><line style="stroke:#181818;stroke-width:0.75;" x1="1318.485" x2="1489.5055" y1="660.441" y2="660.441"/><line style="stroke:#181818;stroke-width:0.75;" x1="1318.485" x2="1489.5055" y1="672.441" y2="672.441"/></g><!--class Board--><g class="entity" data-entity="Board" data-source-line="53" data-uid="ent0026" id="entity_Board"><rect fill="#F1F1F1" height="72" rx="3.75" ry="3.75" style="stroke:#181818;stroke-width:0.75;" width="104.0278" x="1584.48" y="288.441"/><ellipse cx="1606.98" cy="312.441" fill="#ADD1B2" rx="16.5" ry="16.5" style="stroke:#181818;stroke-width:1.5;"/><path d="M1599.48,314.1754 C1599.48,317.9254 1602.6909,320.6441 1607.0738,320.6441 C1608.9253,320.6441 1610.6831,320.1988 1611.8081,319.4254 C1612.7222,318.7925 1613.2144,318.1597 1613.2144,317.5504 C1613.2144,316.8472 1612.5816,316.2379 1611.8316,316.2379 C1611.48,316.2379 1611.1519,316.355 1610.8472,316.6597 C1610.1909,317.316 1610.1909,317.316 1609.9331,317.4566 C1609.2534,317.8082 1608.2925,318.0191 1607.1441,318.0191 C1604.1441,318.0191 1602.2222,316.4957 1602.2222,314.1285 L1602.2222,312.5582 C1602.2222,310.0035 1604.0503,308.1988 1606.605,308.1988 C1607.4722,308.1988 1608.3394,308.4097 1609.0425,308.7847 C1609.7456,309.1832 1610.0034,309.4644 1610.0972,310.0035 C1610.2847,311.0113 1610.6597,311.3863 1611.4566,311.3863 C1611.8784,311.3863 1612.3003,311.1754 1612.5816,310.8472 C1612.7691,310.5894 1612.8394,310.3316 1612.8394,309.6754 L1612.8394,307.6363 C1612.8394,307.0035 1612.8159,306.7925 1612.6284,306.5347 C1612.3706,306.1597 1611.9488,305.9254 1611.4566,305.9254 C1610.9878,305.9254 1610.6831,306.0894 1610.355,306.4879 C1608.5972,305.7379 1607.9409,305.5738 1606.5113,305.5738 C1602.5034,305.5738 1599.48,308.5972 1599.48,312.5347 L1599.48,314.1754 Z " fill="#000000"/><text fill="#000000" font-family="sans-serif" font-size="21" lengthAdjust="spacing" textLength="56.0278" x="1627.98" y="319.3499">Board</text><line style="stroke:#181818;stroke-width:0.75;" x1="1585.98" x2="1687.0078" y1="336.441" y2="336.441"/><line style="stroke:#181818;stroke-width:0.75;" x1="1585.98" x2="1687.0078" y1="348.441" y2="348.441"/></g><!--class FieldState--><g class="entity" data-entity="FieldState" data-source-line="56" data-uid="ent0027" id="entity_FieldState"><rect fill="#F1F1F1" height="72" rx="3.75" ry="3.75" style="stroke:#181818;stroke-width:0.75;" width="142.5416" x="1575.735" y="450.441"/><ellipse cx="1598.235" cy="474.441" fill="#EB937F" rx="16.5" ry="16.5" style="stroke:#181818;stroke-width:1.5;"/><path d="M1596.5241,476.0347 L1598.4928,476.0347 L1598.4928,476.105 C1598.4928,476.7144 1598.5163,476.9488 1598.6803,477.1832 C1598.9381,477.5582 1599.3834,477.816 1599.8522,477.816 C1600.2741,477.816 1600.7194,477.605 1600.9772,477.2769 C1601.1647,476.9957 1601.235,476.7847 1601.235,476.105 L1601.235,473.3394 C1601.235,472.8472 1601.2116,472.6832 1601.1178,472.4254 C1600.9538,471.98 1600.4147,471.605 1599.8522,471.605 C1599.4069,471.605 1599.0084,471.816 1598.7506,472.1441 C1598.5397,472.4254 1598.4928,472.6832 1598.4928,473.3394 L1598.4928,473.4332 L1596.5241,473.4332 L1596.5241,470.1754 L1602.2897,470.1754 L1602.2897,471.3004 C1602.2897,471.8863 1602.3366,472.1675 1602.5006,472.4019 C1602.7584,472.7769 1603.2038,473.0347 1603.6725,473.0347 C1604.1178,473.0347 1604.5163,472.8472 1604.7975,472.4957 C1605.0084,472.2144 1605.0553,472.0035 1605.0553,471.3004 L1605.0553,467.5504 L1593.5006,467.5504 C1592.8209,467.5504 1592.6334,467.5738 1592.3756,467.7379 C1591.9772,467.9957 1591.7194,468.3941 1591.7194,468.8629 C1591.7194,469.2847 1591.9069,469.6832 1592.2819,469.941 C1592.5631,470.1285 1592.8444,470.1754 1593.5006,470.1754 L1593.7819,470.1754 L1593.7819,479.316 L1593.5006,479.316 C1592.8678,479.316 1592.6334,479.3629 1592.3756,479.5035 C1591.9772,479.7379 1591.7194,480.1597 1591.7194,480.605 C1591.7194,481.4722 1592.3288,481.941 1593.5006,481.941 L1605.6178,481.941 L1605.6178,478.1441 C1605.6178,477.5347 1605.5709,477.2769 1605.4069,477.0425 C1605.1491,476.6441 1604.7272,476.4097 1604.235,476.4097 C1603.8131,476.4097 1603.3913,476.6207 1603.11,476.9488 C1602.8991,477.23 1602.8522,477.4644 1602.8522,478.1441 L1602.8522,479.316 L1596.5241,479.316 L1596.5241,476.0347 Z " fill="#000000"/><text fill="#000000" font-family="sans-serif" font-size="21" lengthAdjust="spacing" textLength="94.5416" x="1619.235" y="481.3499">FieldState</text><line style="stroke:#181818;stroke-width:0.75;" x1="1577.235" x2="1716.7766" y1="498.441" y2="498.441"/><line style="stroke:#181818;stroke-width:0.75;" x1="1577.235" x2="1716.7766" y1="510.441" y2="510.441"/></g><!--class Command--><g class="entity" data-entity="Command" data-source-line="63" data-uid="ent0030" id="entity_Command"><rect fill="#F1F1F1" height="72" rx="3.75" ry="3.75" style="stroke:#181818;stroke-width:0.75;" width="144.8516" x="104.58" y="288.441"/><ellipse cx="127.08" cy="312.441" fill="#A9DCDF" rx="16.5" ry="16.5" style="stroke:#181818;stroke-width:1.5;"/><path d="M129.3769,315.3472 L129.8691,316.5425 L129.4472,316.5425 C128.7675,316.5425 128.58,316.5894 128.3222,316.7535 C127.9003,316.9644 127.6425,317.4097 127.6425,317.855 C127.6425,318.3004 127.8534,318.6754 128.205,318.9332 C128.4628,319.1207 128.8144,319.191 129.4472,319.191 L132.9862,319.191 C133.5253,319.191 133.9003,319.1441 134.1112,319.0035 C134.5097,318.7925 134.7675,318.3238 134.7675,317.855 C134.7675,317.4566 134.5566,317.0582 134.205,316.8004 C133.9237,316.6129 133.6894,316.566 133.0097,316.5425 L127.9238,304.8004 L122.3456,304.8004 C121.6659,304.8004 121.455,304.8238 121.1972,304.9879 C120.7988,305.2457 120.5409,305.6675 120.5409,306.1129 C120.5409,306.5347 120.7519,306.9332 121.1269,307.191 C121.3847,307.3785 121.6659,307.4254 122.3456,307.4254 L123.7988,307.4254 L119.9316,316.5425 C118.8066,316.5425 118.1972,316.9879 118.1972,317.855 C118.1972,318.7691 118.7831,319.191 119.9784,319.191 L123.3769,319.191 C123.9159,319.191 124.2909,319.1441 124.5019,319.0035 C124.9003,318.7691 125.1581,318.3238 125.1581,317.855 C125.1581,317.4566 124.9472,317.0582 124.5956,316.8004 C124.3144,316.5894 124.08,316.5425 123.3769,316.5425 L122.9316,316.5425 L123.4472,315.3472 L129.3769,315.3472 Z M128.2284,312.7222 L124.5488,312.7222 L126.4003,308.4097 L128.2284,312.7222 Z " fill="#000000"/><text fill="#000000" font-family="sans-serif" font-size="21" font-style="italic" lengthAdjust="spacing" textLength="96.8516" x="148.08" y="321.3659">Command</text><line style="stroke:#181818;stroke-width:0.75;" x1="106.08" x2="247.9316" y1="336.441" y2="336.441"/><line style="stroke:#181818;stroke-width:0.75;" x1="106.08" x2="247.9316" y1="348.441" y2="348.441"/></g><!--class MoveCommand--><g class="entity" data-entity="MoveCommand" data-source-line="66" data-uid="ent0031" id="entity_MoveCommand"><rect fill="#F1F1F1" height="72" rx="3.75" ry="3.75" style="stroke:#181818;stroke-width:0.75;" width="196.1964" x="68.4" y="126.441"/><ellipse cx="90.9" cy="150.441" fill="#ADD1B2" rx="16.5" ry="16.5" style="stroke:#181818;stroke-width:1.5;"/><path d="M83.4,152.1754 C83.4,155.9254 86.6109,158.6441 90.9938,158.6441 C92.8453,158.6441 94.6031,158.1988 95.7281,157.4254 C96.6422,156.7925 97.1344,156.1597 97.1344,155.5504 C97.1344,154.8472 96.5016,154.2379 95.7516,154.2379 C95.4,154.2379 95.0719,154.355 94.7672,154.6597 C94.1109,155.316 94.1109,155.316 93.8531,155.4566 C93.1734,155.8082 92.2125,156.0191 91.0641,156.0191 C88.0641,156.0191 86.1422,154.4957 86.1422,152.1285 L86.1422,150.5582 C86.1422,148.0035 87.9703,146.1988 90.525,146.1988 C91.3922,146.1988 92.2594,146.4097 92.9625,146.7847 C93.6656,147.1832 93.9234,147.4644 94.0172,148.0035 C94.2047,149.0113 94.5797,149.3863 95.3766,149.3863 C95.7984,149.3863 96.2203,149.1754 96.5016,148.8472 C96.6891,148.5894 96.7594,148.3316 96.7594,147.6754 L96.7594,145.6363 C96.7594,145.0035 96.7359,144.7925 96.5484,144.5347 C96.2906,144.1597 95.8688,143.9254 95.3766,143.9254 C94.9078,143.9254 94.6031,144.0894 94.275,144.4879 C92.5172,143.7379 91.8609,143.5738 90.4313,143.5738 C86.4234,143.5738 83.4,146.5972 83.4,150.5347 L83.4,152.1754 Z " fill="#000000"/><text fill="#000000" font-family="sans-serif" font-size="21" lengthAdjust="spacing" textLength="148.1964" x="111.9" y="157.3499">MoveCommand</text><line style="stroke:#181818;stroke-width:0.75;" x1="69.9" x2="263.0964" y1="174.441" y2="174.441"/><line style="stroke:#181818;stroke-width:0.75;" x1="69.9" x2="263.0964" y1="186.441" y2="186.441"/></g><!--reverse link GameState to WhiteTurn--><g class="link" data-entity-1="GameState" data-entity-2="WhiteTurn" data-source-line="23" data-uid="lnk10" id="link_GameState_WhiteTurn"><path codeLine="23" d="M675.6282,378.6819 C662.3232,390.0969 667.875,385.131 654,396.441 C631.86,414.486 606.825,434.001 585.87,450.111" fill="none" id="GameState-backto-WhiteTurn" style="stroke:#181818;stroke-width:1.5;stroke-dasharray:10.5,10.5;"/><polygon fill="none" points="696.12,361.101,669.7679,371.8513,681.4885,385.5124,696.12,361.101" style="stroke:#181818;stroke-width:1.5;"/></g><!--reverse link GameState to BlackTurn--><g class="link" data-entity-1="GameState" data-entity-2="BlackTurn" data-source-line="24" data-uid="lnk11" id="link_GameState_BlackTurn"><path codeLine="24" d="M736.5,387.831 C736.5,414.351 736.5,423.636 736.5,450.126" fill="none" id="GameState-backto-BlackTurn" style="stroke:#181818;stroke-width:1.5;stroke-dasharray:10.5,10.5;"/><polygon fill="none" points="736.5,360.831,727.5,387.831,745.5,387.831,736.5,360.831" style="stroke:#181818;stroke-width:1.5;"/></g><!--reverse link GameState to EndOfGame--><g class="link" data-entity-1="GameState" data-entity-2="EndOfGame" data-source-line="25" data-uid="lnk12" id="link_GameState_EndOfGame"><path codeLine="25" d="M802.9557,377.3581 C837.2157,403.8781 862.77,423.636 897,450.126" fill="none" id="GameState-backto-EndOfGame" style="stroke:#181818;stroke-width:1.5;stroke-dasharray:10.5,10.5;"/><polygon fill="none" points="781.605,360.831,797.4467,384.475,808.4648,370.2412,781.605,360.831" style="stroke:#181818;stroke-width:1.5;"/></g><!--reverse link Rule to SimpleRule--><g class="link" data-entity-1="Rule" data-entity-2="SimpleRule" data-source-line="44" data-uid="lnk19" id="link_Rule_SimpleRule"><path codeLine="44" d="M1274.4007,543.4137 C1251.8857,569.9337 1238.55,585.636 1216.05,612.126" fill="none" id="Rule-backto-SimpleRule" style="stroke:#181818;stroke-width:1.5;stroke-dasharray:10.5,10.5;"/><polygon fill="none" points="1291.875,522.831,1267.5398,537.5889,1281.2616,549.2385,1291.875,522.831" style="stroke:#181818;stroke-width:1.5;"/></g><!--reverse link Rule to ComplexRule--><g class="link" data-entity-1="Rule" data-entity-2="ComplexRule" data-source-line="45" data-uid="lnk20" id="link_Rule_ComplexRule"><path codeLine="45" d="M1332.2259,548.2004 C1341.8859,574.7204 1351.485,585.636 1369.32,612.126" fill="none" id="Rule-backto-ComplexRule" style="stroke:#181818;stroke-width:1.5;stroke-dasharray:10.5,10.5;"/><polygon fill="none" points="1322.985,522.831,1323.7694,551.2807,1340.6824,545.1201,1322.985,522.831" style="stroke:#181818;stroke-width:1.5;"/></g><!--link ComplexRule to Rule--><g class="link" data-entity-1="ComplexRule" data-entity-2="Rule" data-source-line="46" data-uid="lnk21" id="link_ComplexRule_Rule"><path codeLine="46" d="M1396.3867,595.2122 C1386.7417,568.7222 1379.1004,556.8173 1361.2504,530.2973" fill="none" id="ComplexRule-Rule" style="stroke:#181818;stroke-width:1.5;"/><polygon fill="none" points="1402.545,612.126,1405.1038,601.6163,1396.3867,595.2122,1393.8279,605.7219,1402.545,612.126" style="stroke:#181818;stroke-width:1.5;"/><polygon fill="#181818" points="1356.225,522.831,1358.7856,537.3807,1360.4128,529.0529,1368.7406,530.6802,1356.225,522.831" style="stroke:#181818;stroke-width:1.5;"/></g><!--reverse link ComplexRule to RuleSet--><g class="link" data-entity-1="ComplexRule" data-entity-2="RuleSet" data-source-line="47" data-uid="lnk22" id="link_ComplexRule_RuleSet"><path codeLine="47" d="M1412.5092,594.3452 C1417.9992,553.3502 1419.3,502.086 1393.5,450.441 C1374.705,412.821 1338.87,382.251 1307.1,360.831" fill="none" id="ComplexRule-backto-RuleSet" style="stroke:#181818;stroke-width:1.5;"/><polygon fill="#181818" points="1410.12,612.186,1417.2615,604.062,1412.5092,594.3452,1405.3677,602.4692,1410.12,612.186" style="stroke:#181818;stroke-width:1.5;"/></g><!--reverse link RuleSet to Rule--><g class="link" data-entity-1="RuleSet" data-entity-2="Rule" data-source-line="48" data-uid="lnk23" id="link_RuleSet_Rule"><path codeLine="48" d="M1269.5918,377.0499 C1282.3568,403.5699 1292.01,423.636 1304.745,450.126" fill="none" id="RuleSet-backto-Rule" style="stroke:#181818;stroke-width:1.5;"/><polygon fill="#181818" points="1261.785,360.831,1260.2821,371.5427,1269.5918,377.0499,1271.0947,366.3382,1261.785,360.831" style="stroke:#181818;stroke-width:1.5;"/></g><!--link RuleSet to Iterator--><g class="link" data-entity-1="RuleSet" data-entity-2="Iterator" data-source-line="49" data-uid="lnk24" id="link_RuleSet_Iterator"><path codeLine="49" d="M1227.555,360.831 C1214.295,387.351 1208.2198,399.4864 1194.9748,425.9764" fill="none" id="RuleSet-to-Iterator" style="stroke:#181818;stroke-width:1.5;stroke-dasharray:10.5,10.5;"/><polygon fill="none" points="1182.9,450.126,1203.0246,430.0014,1186.9249,421.9515,1182.9,450.126" style="stroke:#181818;stroke-width:1.5;"/></g><!--reverse link Board to FieldState--><g class="link" data-entity-1="Board" data-entity-2="FieldState" data-source-line="59" data-uid="lnk28" id="link_Board_FieldState"><path codeLine="59" d="M1639.9885,378.7924 C1641.7285,405.3124 1642.95,423.636 1644.705,450.126" fill="none" id="Board-backto-FieldState" style="stroke:#181818;stroke-width:1.5;"/><polygon fill="#181818" points="1638.81,360.831,1633.4121,370.2045,1639.9885,378.7924,1645.3864,369.4188,1638.81,360.831" style="stroke:#181818;stroke-width:1.5;"/></g><!--link MoveCommand to Command--><g class="link" data-entity-1="MoveCommand" data-entity-2="Command" data-source-line="69" data-uid="lnk32" id="link_MoveCommand_Command"><path codeLine="69" d="M168.81,198.831 C170.55,225.351 171.1651,234.695 172.9201,261.185" fill="none" id="MoveCommand-to-Command" style="stroke:#181818;stroke-width:1.5;"/><polygon fill="none" points="174.705,288.126,181.9004,260.5901,163.9398,261.78,174.705,288.126" style="stroke:#181818;stroke-width:1.5;"/></g><!--reverse link Game to RuleSet--><g class="link" data-entity-1="Game" data-entity-2="RuleSet" data-source-line="72" data-uid="lnk33" id="link_Game_RuleSet"><path codeLine="72" d="M807.4052,171.8096 C870.4202,179.5646 960.255,193.881 1048.5,223.941 C1096.77,240.381 1148.13,266.601 1186.245,287.931" fill="none" id="Game-backto-RuleSet" style="stroke:#181818;stroke-width:1.5;"/><polygon fill="none" points="789.54,169.611,797.7397,176.6653,807.4052,171.8096,799.2055,164.7552,789.54,169.611" style="stroke:#181818;stroke-width:1.5;"/></g><!--reverse link Game to Board--><g class="link" data-entity-1="Game" data-entity-2="Board" data-source-line="73" data-uid="lnk34" id="link_Game_Board"><path codeLine="73" d="M807.5249,164.0133 C960.5999,164.6283 1382.685,171.036 1515,223.941 C1549.86,237.876 1582.455,265.566 1605.075,288.111" fill="none" id="Game-backto-Board" style="stroke:#181818;stroke-width:1.5;"/><polygon fill="#181818" points="789.525,163.941,798.5008,169.9771,807.5249,164.0133,798.549,157.9772,789.525,163.941" style="stroke:#181818;stroke-width:1.5;"/></g><!--link Game to GameState--><g class="link" data-entity-1="Game" data-entity-2="GameState" data-source-line="74" data-uid="lnk35" id="link_Game_GameState"><path codeLine="74" d="M736.5,216.831 C736.5,243.351 736.5,252.636 736.5,279.126" fill="none" id="Game-GameState" style="stroke:#181818;stroke-width:1.5;"/><polygon fill="#181818" points="736.5,198.831,730.5,207.831,736.5,216.831,742.5,207.831,736.5,198.831" style="stroke:#181818;stroke-width:1.5;"/><polygon fill="#181818" points="736.5,288.126,742.5,274.626,736.5,280.626,730.5,274.626,736.5,288.126" style="stroke:#181818;stroke-width:1.5;"/></g><!--reverse link Game to Player--><g class="link" data-entity-1="Game" data-entity-2="Player" data-source-line="75" data-uid="lnk36" id="link_Game_Player"><path codeLine="75" d="M665.4146,164.8299 C603.5546,167.3199 518.34,178.071 444,223.941 C418.86,239.451 398.55,266.136 384.96,287.901" fill="none" id="Game-backto-Player" style="stroke:#181818;stroke-width:1.5;"/><polygon fill="#181818" points="683.4,164.106,674.166,158.4728,665.4146,164.8299,674.6486,170.4631,683.4,164.106" style="stroke:#181818;stroke-width:1.5;"/></g><!--link Game to Command--><g class="link" data-entity-1="Game" data-entity-2="Command" data-source-line="76" data-uid="lnk37" id="link_Game_Command"><path codeLine="76" d="M683.49,165.516 C574.065,169.581 327.36,183.111 255,223.941 C229.08,238.566 213.3638,257.9016 199.9388,280.0266" fill="none" id="Game-to-Command" style="stroke:#181818;stroke-width:1.5;"/><polygon fill="#181818" points="195.27,287.721,207.4027,279.292,199.1606,281.309,197.1436,273.067,195.27,287.721" style="stroke:#181818;stroke-width:1.5;"/></g><!--SRC=[XLDDJuD04BtpA-RS118FtamFDTLuQ3HYudcwJ9LqFvfbCHhR_owxi1zGY1V2llVcpSnZAHboWflYDZiXE-87mKvLnE4tom0OnwQ1HnJKdG4k4NlX-4CwehwuD6YeSJX0BGtf0p9o5euQ65VZlTu_QqDlhPPpv8PtpalaLbRFXp1U86EtktDHHFyvClZFaS5_kgPkUTYo7-MrGqeouq5Y04_T2ngbbtXRFkPmtnYDp0p-PIrEdFwLtIih-xxMESGj5PqcH5BhcDHBvVcwrrvHgpptsmT3cuJ7Hs1HdDSXZ6cgUuMw6gMwIP1XaQri1JpKnAkP2zNhRUUeS5q0aZvC2K6oyXymHDXj9L36VlQP3BDJNxGeISayxvOS3d4wTqzja4bQFMRdTPDxP6NJ3dSnGOV_pYDMvljS_W00]--></g></svg>