<svg xmlns="http://www.w3.org/2000/svg" xmlns:xlink="http://www.w3.org/1999/xlink" contentStyleType="text/css" data-diagram-type="CLASS" height="754.5px" preserveAspectRatio="none" style="width:2067px;height:754px;background:#FFFFFF;" version="1.1" viewBox="0 0 2067 754" width="2067px" zoomAndPan="magnify"><defs/><g><!--cluster Model--><g class="cluster" data-entity="Model" data-source-line="2" data-uid="ent0002" id="cluster_Model"><path d="M12.75,9.441 L74.9188,9.441 A5.625,5.625 0 0 1 78.6688,13.191 L89.1688,43.6409 L2052.75,43.6409 A3.75,3.75 0 0 1 2056.5,47.3909 L2056.5,740.691 A3.75,3.75 0 0 1 2052.75,744.441 L12.75,744.441 A3.75,3.75 0 0 1 9,740.691 L9,13.191 A3.75,3.75 0 0 1 12.75,9.441" fill="none" style="stroke:#000000;stroke-width:2.25;"/><line style="stroke:#000000;stroke-width:2.25;" x1="9" x2="89.1688" y1="43.6409" y2="43.6409"/><text fill="#000000" font-family="sans-serif" font-size="21" font-weight="bold" lengthAdjust="spacing" textLength="60.6688" x="15" y="31.9499">Model</text></g><!--cluster States--><g class="cluster" data-entity="States" data-source-line="10" data-uid="ent0005" id="cluster_States"><path d="M723.75,235.941 L788.2708,235.941 A5.625,5.625 0 0 1 792.0208,239.691 L802.5208,270.1409 L1322.25,270.1409 A3.75,3.75 0 0 1 1326,273.8909 L1326,542.691 A3.75,3.75 0 0 1 1322.25,546.441 L723.75,546.441 A3.75,3.75 0 0 1 720,542.691 L720,239.691 A3.75,3.75 0 0 1 723.75,235.941" fill="none" style="stroke:#000000;stroke-width:2.25;"/><line style="stroke:#000000;stroke-width:2.25;" x1="720" x2="802.5208" y1="270.1409" y2="270.1409"/><text fill="#000000" font-family="sans-serif" font-size="21" font-weight="bold" lengthAdjust="spacing" textLength="63.0208" x="726" y="258.4499">States</text></g><!--cluster rules--><g class="cluster" data-entity="rules" data-source-line="28" data-uid="ent0013" id="cluster_rules"><path d="M1365.75,235.941 L1417.4398,235.941 A5.625,5.625 0 0 1 1421.1898,239.691 L1431.6898,270.1409 L1788.75,270.1409 A3.75,3.75 0 0 1 1792.5,273.8909 L1792.5,704.691 A3.75,3.75 0 0 1 1788.75,708.441 L1365.75,708.441 A3.75,3.75 0 0 1 1362,704.691 L1362,239.691 A3.75,3.75 0 0 1 1365.75,235.941" fill="none" style="stroke:#000000;stroke-width:2.25;"/><line style="stroke:#000000;stroke-width:2.25;" x1="1362" x2="1431.6898" y1="270.1409" y2="270.1409"/><text fill="#000000" font-family="sans-serif" font-size="21" font-weight="bold" lengthAdjust="spacing" textLength="50.1898" x="1368" y="258.4499">rules</text></g><!--cluster board--><g class="cluster" data-entity="board" data-source-line="52" data-uid="ent0025" id="cluster_board"><path d="M1832.25,235.941 L1892.0878,235.941 A5.625,5.625 0 0 1 1895.8378,239.691 L1906.3378,270.1409 L2016.75,270.1409 A3.75,3.75 0 0 1 2020.5,273.8909 L2020.5,542.691 A3.75,3.75 0 0 1 2016.75,546.441 L1832.25,546.441 A3.75,3.75 0 0 1 1828.5,542.691 L1828.5,239.691 A3.75,3.75 0 0 1 1832.25,235.941" fill="none" style="stroke:#000000;stroke-width:2.25;"/><line style="stroke:#000000;stroke-width:2.25;" x1="1828.5" x2="1906.3378" y1="270.1409" y2="270.1409"/><text fill="#000000" font-family="sans-serif" font-size="21" font-weight="bold" lengthAdjust="spacing" textLength="58.3378" x="1834.5" y="258.4499">board</text></g><!--cluster commands--><g class="cluster" data-entity="commands" data-source-line="62" data-uid="ent0029" id="cluster_commands"><path d="M48.75,73.941 L161.1086,73.941 A5.625,5.625 0 0 1 164.8586,77.691 L175.3586,108.1409 L284.25,108.1409 A3.75,3.75 0 0 1 288,111.8909 L288,380.691 A3.75,3.75 0 0 1 284.25,384.441 L48.75,384.441 A3.75,3.75 0 0 1 45,380.691 L45,77.691 A3.75,3.75 0 0 1 48.75,73.941" fill="none" style="stroke:#000000;stroke-width:2.25;"/><line style="stroke:#000000;stroke-width:2.25;" x1="45" x2="175.3586" y1="108.1409" y2="108.1409"/><text fill="#000000" font-family="sans-serif" font-size="21" font-weight="bold" lengthAdjust="spacing" textLength="110.8586" x="51" y="96.4499">commands</text></g><!--cluster builder--><g class="cluster" data-entity="builder" data-source-line="72" data-uid="ent0033" id="cluster_builder"><path d="M327.75,73.941 L399.2637,73.941 A5.625,5.625 0 0 1 403.0137,77.691 L413.5137,108.1409 L560.25,108.1409 A3.75,3.75 0 0 1 564,111.8909 L564,380.691 A3.75,3.75 0 0 1 560.25,384.441 L327.75,384.441 A3.75,3.75 0 0 1 324,380.691 L324,77.691 A3.75,3.75 0 0 1 327.75,73.941" fill="none" style="stroke:#000000;stroke-width:2.25;"/><line style="stroke:#000000;stroke-width:2.25;" x1="324" x2="413.5137" y1="108.1409" y2="108.1409"/><text fill="#000000" font-family="sans-serif" font-size="21" font-weight="bold" lengthAdjust="spacing" textLength="70.0137" x="330" y="96.4499">builder</text></g><!--class Game--><g class="entity" data-entity="Game" data-source-line="4" data-uid="ent0003" id="entity_Game"><rect fill="#F1F1F1" height="72" rx="3.75" ry="3.75" style="stroke:#181818;stroke-width:0.75;" width="105.1828" x="682.41" y="126.441"/><ellipse cx="704.91" cy="150.441" fill="#ADD1B2" rx="16.5" ry="16.5" style="stroke:#181818;stroke-width:1.5;"/><path d="M697.41,152.1754 C697.41,155.9254 700.6209,158.6441 705.0038,158.6441 C706.8553,158.6441 708.6131,158.1988 709.7381,157.4254 C710.6522,156.7925 711.1444,156.1597 711.1444,155.5504 C711.1444,154.8472 710.5116,154.2379 709.7616,154.2379 C709.41,154.2379 709.0819,154.355 708.7772,154.6597 C708.1209,155.316 708.1209,155.316 707.8631,155.4566 C707.1834,155.8082 706.2225,156.0191 705.0741,156.0191 C702.0741,156.0191 700.1522,154.4957 700.1522,152.1285 L700.1522,150.5582 C700.1522,148.0035 701.9803,146.1988 704.535,146.1988 C705.4022,146.1988 706.2694,146.4097 706.9725,146.7847 C707.6756,147.1832 707.9334,147.4644 708.0272,148.0035 C708.2147,149.0113 708.5897,149.3863 709.3866,149.3863 C709.8084,149.3863 710.2303,149.1754 710.5116,148.8472 C710.6991,148.5894 710.7694,148.3316 710.7694,147.6754 L710.7694,145.6363 C710.7694,145.0035 710.7459,144.7925 710.5584,144.5347 C710.3006,144.1597 709.8788,143.9254 709.3866,143.9254 C708.9178,143.9254 708.6131,144.0894 708.285,144.4879 C706.5272,143.7379 705.8709,143.5738 704.4413,143.5738 C700.4334,143.5738 697.41,146.5972 697.41,150.5347 L697.41,152.1754 Z " fill="#000000"/><text fill="#000000" font-family="sans-serif" font-size="21" lengthAdjust="spacing" textLength="57.1828" x="725.91" y="157.3499">Game</text><line style="stroke:#181818;stroke-width:0.75;" x1="683.91" x2="786.0928" y1="174.441" y2="174.441"/><line style="stroke:#181818;stroke-width:0.75;" x1="683.91" x2="786.0928" y1="186.441" y2="186.441"/></g><!--class Player--><g class="entity" data-entity="Player" data-source-line="7" data-uid="ent0004" id="entity_Player"><rect fill="#F1F1F1" height="72" rx="3.75" ry="3.75" style="stroke:#181818;stroke-width:0.75;" width="107.5138" x="588.24" y="288.441"/><ellipse cx="610.74" cy="312.441" fill="#ADD1B2" rx="16.5" ry="16.5" style="stroke:#181818;stroke-width:1.5;"/><path d="M603.24,314.1754 C603.24,317.9254 606.4509,320.6441 610.8338,320.6441 C612.6853,320.6441 614.4431,320.1988 615.5681,319.4254 C616.4822,318.7925 616.9744,318.1597 616.9744,317.5504 C616.9744,316.8472 616.3416,316.2379 615.5916,316.2379 C615.24,316.2379 614.9119,316.355 614.6072,316.6597 C613.9509,317.316 613.9509,317.316 613.6931,317.4566 C613.0134,317.8082 612.0525,318.0191 610.9041,318.0191 C607.9041,318.0191 605.9822,316.4957 605.9822,314.1285 L605.9822,312.5582 C605.9822,310.0035 607.8103,308.1988 610.365,308.1988 C611.2322,308.1988 612.0994,308.4097 612.8025,308.7847 C613.5056,309.1832 613.7634,309.4644 613.8572,310.0035 C614.0447,311.0113 614.4197,311.3863 615.2166,311.3863 C615.6384,311.3863 616.0603,311.1754 616.3416,310.8472 C616.5291,310.5894 616.5994,310.3316 616.5994,309.6754 L616.5994,307.6363 C616.5994,307.0035 616.5759,306.7925 616.3884,306.5347 C616.1306,306.1597 615.7088,305.9254 615.2166,305.9254 C614.7478,305.9254 614.4431,306.0894 614.115,306.4879 C612.3572,305.7379 611.7009,305.5738 610.2713,305.5738 C606.2634,305.5738 603.24,308.5972 603.24,312.5347 L603.24,314.1754 Z " fill="#000000"/><text fill="#000000" font-family="sans-serif" font-size="21" lengthAdjust="spacing" textLength="59.5138" x="631.74" y="319.3499">Player</text><line style="stroke:#181818;stroke-width:0.75;" x1="589.74" x2="694.2538" y1="336.441" y2="336.441"/><line style="stroke:#181818;stroke-width:0.75;" x1="589.74" x2="694.2538" y1="348.441" y2="348.441"/></g><!--class GameState--><g class="entity" data-entity="GameState" data-source-line="11" data-uid="ent0006" id="entity_GameState"><rect fill="#F1F1F1" height="72" rx="3.75" ry="3.75" style="stroke:#181818;stroke-width:0.75;" width="154.2176" x="852.885" y="288.441"/><ellipse cx="875.385" cy="312.441" fill="#B4A7E5" rx="16.5" ry="16.5" style="stroke:#181818;stroke-width:1.5;"/><path d="M876.9084,308.1754 L879.3928,308.1754 C879.9788,308.1754 880.2834,308.1285 880.5178,308.0113 C880.9163,307.7535 881.1741,307.3082 881.1741,306.8629 C881.1741,306.441 880.9631,306.066 880.6116,305.8082 C880.3303,305.6207 880.0959,305.5504 879.3928,305.5504 L871.6819,305.5504 C871.0256,305.5504 870.8147,305.5738 870.5569,305.7379 C870.1584,305.9957 869.9006,306.4175 869.9006,306.8629 C869.9006,307.2847 870.1116,307.7066 870.4631,307.941 C870.7444,308.1285 871.0256,308.1754 871.6819,308.1754 L874.1663,308.1754 L874.1663,317.316 L871.6819,317.316 C871.0256,317.316 870.8147,317.3394 870.5569,317.5035 C870.1584,317.7379 869.9006,318.1832 869.9006,318.605 C869.9006,319.5191 870.51,319.941 871.6819,319.941 L879.3928,319.941 C880.5647,319.941 881.1741,319.5191 881.1741,318.605 C881.1741,318.2066 880.9631,317.8316 880.6116,317.5738 C880.3303,317.3629 880.0725,317.316 879.3928,317.316 L876.9084,317.316 L876.9084,308.1754 Z " fill="#000000"/><text fill="#000000" font-family="sans-serif" font-size="21" font-style="italic" lengthAdjust="spacing" textLength="106.2176" x="896.385" y="321.3659">GameState</text><line style="stroke:#181818;stroke-width:0.75;" x1="854.385" x2="1005.6026" y1="336.441" y2="336.441"/><line style="stroke:#181818;stroke-width:0.75;" x1="854.385" x2="1005.6026" y1="348.441" y2="348.441"/></g><!--class WhiteTurn--><g class="entity" data-entity="WhiteTurn" data-source-line="14" data-uid="ent0007" id="entity_WhiteTurn"><rect fill="#F1F1F1" height="72" rx="3.75" ry="3.75" style="stroke:#181818;stroke-width:0.75;" width="144.8516" x="961.08" y="450.441"/><ellipse cx="983.58" cy="474.441" fill="#ADD1B2" rx="16.5" ry="16.5" style="stroke:#181818;stroke-width:1.5;"/><path d="M976.08,476.1754 C976.08,479.9254 979.2909,482.6441 983.6738,482.6441 C985.5253,482.6441 987.2831,482.1988 988.4081,481.4254 C989.3222,480.7925 989.8144,480.1597 989.8144,479.5504 C989.8144,478.8472 989.1816,478.2379 988.4316,478.2379 C988.08,478.2379 987.7519,478.355 987.4472,478.6597 C986.7909,479.316 986.7909,479.316 986.5331,479.4566 C985.8534,479.8082 984.8925,480.0191 983.7441,480.0191 C980.7441,480.0191 978.8222,478.4957 978.8222,476.1285 L978.8222,474.5582 C978.8222,472.0035 980.6503,470.1988 983.205,470.1988 C984.0722,470.1988 984.9394,470.4097 985.6425,470.7847 C986.3456,471.1832 986.6034,471.4644 986.6972,472.0035 C986.8847,473.0113 987.2597,473.3863 988.0566,473.3863 C988.4784,473.3863 988.9003,473.1754 989.1816,472.8472 C989.3691,472.5894 989.4394,472.3316 989.4394,471.6754 L989.4394,469.6363 C989.4394,469.0035 989.4159,468.7925 989.2284,468.5347 C988.9706,468.1597 988.5488,467.9254 988.0566,467.9254 C987.5878,467.9254 987.2831,468.0894 986.955,468.4879 C985.1972,467.7379 984.5409,467.5738 983.1113,467.5738 C979.1034,467.5738 976.08,470.5972 976.08,474.5347 L976.08,476.1754 Z " fill="#000000"/><text fill="#000000" font-family="sans-serif" font-size="21" lengthAdjust="spacing" textLength="96.8516" x="1004.58" y="481.3499">WhiteTurn</text><line style="stroke:#181818;stroke-width:0.75;" x1="962.58" x2="1104.4316" y1="498.441" y2="498.441"/><line style="stroke:#181818;stroke-width:0.75;" x1="962.58" x2="1104.4316" y1="510.441" y2="510.441"/></g><!--class BlackTurn--><g class="entity" data-entity="BlackTurn" data-source-line="17" data-uid="ent0008" id="entity_BlackTurn"><rect fill="#F1F1F1" height="72" rx="3.75" ry="3.75" style="stroke:#181818;stroke-width:0.75;" width="142.5206" x="1158.735" y="450.441"/><ellipse cx="1181.235" cy="474.441" fill="#ADD1B2" rx="16.5" ry="16.5" style="stroke:#181818;stroke-width:1.5;"/><path d="M1173.735,476.1754 C1173.735,479.9254 1176.9459,482.6441 1181.3288,482.6441 C1183.1803,482.6441 1184.9381,482.1988 1186.0631,481.4254 C1186.9772,480.7925 1187.4694,480.1597 1187.4694,479.5504 C1187.4694,478.8472 1186.8366,478.2379 1186.0866,478.2379 C1185.735,478.2379 1185.4069,478.355 1185.1022,478.6597 C1184.4459,479.316 1184.4459,479.316 1184.1881,479.4566 C1183.5084,479.8082 1182.5475,480.0191 1181.3991,480.0191 C1178.3991,480.0191 1176.4772,478.4957 1176.4772,476.1285 L1176.4772,474.5582 C1176.4772,472.0035 1178.3053,470.1988 1180.86,470.1988 C1181.7272,470.1988 1182.5944,470.4097 1183.2975,470.7847 C1184.0006,471.1832 1184.2584,471.4644 1184.3522,472.0035 C1184.5397,473.0113 1184.9147,473.3863 1185.7116,473.3863 C1186.1334,473.3863 1186.5553,473.1754 1186.8366,472.8472 C1187.0241,472.5894 1187.0944,472.3316 1187.0944,471.6754 L1187.0944,469.6363 C1187.0944,469.0035 1187.0709,468.7925 1186.8834,468.5347 C1186.6256,468.1597 1186.2038,467.9254 1185.7116,467.9254 C1185.2428,467.9254 1184.9381,468.0894 1184.61,468.4879 C1182.8522,467.7379 1182.1959,467.5738 1180.7663,467.5738 C1176.7584,467.5738 1173.735,470.5972 1173.735,474.5347 L1173.735,476.1754 Z " fill="#000000"/><text fill="#000000" font-family="sans-serif" font-size="21" lengthAdjust="spacing" textLength="94.5206" x="1202.235" y="481.3499">BlackTurn</text><line style="stroke:#181818;stroke-width:0.75;" x1="1160.235" x2="1299.7556" y1="498.441" y2="498.441"/><line style="stroke:#181818;stroke-width:0.75;" x1="1160.235" x2="1299.7556" y1="510.441" y2="510.441"/></g><!--class EndOfGame--><g class="entity" data-entity="EndOfGame" data-source-line="20" data-uid="ent0009" id="entity_EndOfGame"><rect fill="#F1F1F1" height="72" rx="3.75" ry="3.75" style="stroke:#181818;stroke-width:0.75;" width="164.7175" x="744.135" y="450.441"/><ellipse cx="766.635" cy="474.441" fill="#ADD1B2" rx="16.5" ry="16.5" style="stroke:#181818;stroke-width:1.5;"/><path d="M759.135,476.1754 C759.135,479.9254 762.3459,482.6441 766.7288,482.6441 C768.5803,482.6441 770.3381,482.1988 771.4631,481.4254 C772.3772,480.7925 772.8694,480.1597 772.8694,479.5504 C772.8694,478.8472 772.2366,478.2379 771.4866,478.2379 C771.135,478.2379 770.8069,478.355 770.5022,478.6597 C769.8459,479.316 769.8459,479.316 769.5881,479.4566 C768.9084,479.8082 767.9475,480.0191 766.7991,480.0191 C763.7991,480.0191 761.8772,478.4957 761.8772,476.1285 L761.8772,474.5582 C761.8772,472.0035 763.7053,470.1988 766.26,470.1988 C767.1272,470.1988 767.9944,470.4097 768.6975,470.7847 C769.4006,471.1832 769.6584,471.4644 769.7522,472.0035 C769.9397,473.0113 770.3147,473.3863 771.1116,473.3863 C771.5334,473.3863 771.9553,473.1754 772.2366,472.8472 C772.4241,472.5894 772.4944,472.3316 772.4944,471.6754 L772.4944,469.6363 C772.4944,469.0035 772.4709,468.7925 772.2834,468.5347 C772.0256,468.1597 771.6037,467.9254 771.1116,467.9254 C770.6428,467.9254 770.3381,468.0894 770.01,468.4879 C768.2522,467.7379 767.5959,467.5738 766.1663,467.5738 C762.1584,467.5738 759.135,470.5972 759.135,474.5347 L759.135,476.1754 Z " fill="#000000"/><text fill="#000000" font-family="sans-serif" font-size="21" lengthAdjust="spacing" textLength="116.7175" x="787.635" y="481.3499">EndOfGame</text><line style="stroke:#181818;stroke-width:0.75;" x1="745.635" x2="907.3525" y1="498.441" y2="498.441"/><line style="stroke:#181818;stroke-width:0.75;" x1="745.635" x2="907.3525" y1="510.441" y2="510.441"/></g><!--class RuleSet--><g class="entity" data-entity="RuleSet" data-source-line="29" data-uid="ent0014" id="entity_RuleSet"><rect fill="#F1F1F1" height="72" rx="3.75" ry="3.75" style="stroke:#181818;stroke-width:0.75;" width="122.6967" x="1411.65" y="288.441"/><ellipse cx="1434.15" cy="312.441" fill="#ADD1B2" rx="16.5" ry="16.5" style="stroke:#181818;stroke-width:1.5;"/><path d="M1426.65,314.1754 C1426.65,317.9254 1429.8609,320.6441 1434.2438,320.6441 C1436.0953,320.6441 1437.8531,320.1988 1438.9781,319.4254 C1439.8922,318.7925 1440.3844,318.1597 1440.3844,317.5504 C1440.3844,316.8472 1439.7516,316.2379 1439.0016,316.2379 C1438.65,316.2379 1438.3219,316.355 1438.0172,316.6597 C1437.3609,317.316 1437.3609,317.316 1437.1031,317.4566 C1436.4234,317.8082 1435.4625,318.0191 1434.3141,318.0191 C1431.3141,318.0191 1429.3922,316.4957 1429.3922,314.1285 L1429.3922,312.5582 C1429.3922,310.0035 1431.2203,308.1988 1433.775,308.1988 C1434.6422,308.1988 1435.5094,308.4097 1436.2125,308.7847 C1436.9156,309.1832 1437.1734,309.4644 1437.2672,310.0035 C1437.4547,311.0113 1437.8297,311.3863 1438.6266,311.3863 C1439.0484,311.3863 1439.4703,311.1754 1439.7516,310.8472 C1439.9391,310.5894 1440.0094,310.3316 1440.0094,309.6754 L1440.0094,307.6363 C1440.0094,307.0035 1439.9859,306.7925 1439.7984,306.5347 C1439.5406,306.1597 1439.1188,305.9254 1438.6266,305.9254 C1438.1578,305.9254 1437.8531,306.0894 1437.525,306.4879 C1435.7672,305.7379 1435.1109,305.5738 1433.6813,305.5738 C1429.6734,305.5738 1426.65,308.5972 1426.65,312.5347 L1426.65,314.1754 Z " fill="#000000"/><text fill="#000000" font-family="sans-serif" font-size="21" lengthAdjust="spacing" textLength="74.6967" x="1455.15" y="319.3499">RuleSet</text><line style="stroke:#181818;stroke-width:0.75;" x1="1413.15" x2="1532.8467" y1="336.441" y2="336.441"/><line style="stroke:#181818;stroke-width:0.75;" x1="1413.15" x2="1532.8467" y1="348.441" y2="348.441"/></g><!--class Iterator--><g class="entity" data-entity="Iterator" data-source-line="32" data-uid="ent0015" id="entity_Iterator"><rect fill="#F1F1F1" height="72" rx="3.75" ry="3.75" style="stroke:#181818;stroke-width:0.75;" width="114.5277" x="1441.23" y="450.441"/><ellipse cx="1463.73" cy="474.441" fill="#B4A7E5" rx="16.5" ry="16.5" style="stroke:#181818;stroke-width:1.5;"/><path d="M1465.2534,470.1754 L1467.7378,470.1754 C1468.3238,470.1754 1468.6284,470.1285 1468.8628,470.0113 C1469.2613,469.7535 1469.5191,469.3082 1469.5191,468.8629 C1469.5191,468.441 1469.3081,468.066 1468.9566,467.8082 C1468.6753,467.6207 1468.4409,467.5504 1467.7378,467.5504 L1460.0269,467.5504 C1459.3706,467.5504 1459.1597,467.5738 1458.9019,467.7379 C1458.5034,467.9957 1458.2456,468.4175 1458.2456,468.8629 C1458.2456,469.2847 1458.4566,469.7066 1458.8081,469.941 C1459.0894,470.1285 1459.3706,470.1754 1460.0269,470.1754 L1462.5113,470.1754 L1462.5113,479.316 L1460.0269,479.316 C1459.3706,479.316 1459.1597,479.3394 1458.9019,479.5035 C1458.5034,479.7379 1458.2456,480.1832 1458.2456,480.605 C1458.2456,481.5191 1458.855,481.941 1460.0269,481.941 L1467.7378,481.941 C1468.9097,481.941 1469.5191,481.5191 1469.5191,480.605 C1469.5191,480.2066 1469.3081,479.8316 1468.9566,479.5738 C1468.6753,479.3629 1468.4175,479.316 1467.7378,479.316 L1465.2534,479.316 L1465.2534,470.1754 Z " fill="#000000"/><text fill="#000000" font-family="sans-serif" font-size="21" font-style="italic" lengthAdjust="spacing" textLength="66.5277" x="1484.73" y="483.3659">Iterator</text><line style="stroke:#181818;stroke-width:0.75;" x1="1442.73" x2="1554.2577" y1="498.441" y2="498.441"/><line style="stroke:#181818;stroke-width:0.75;" x1="1442.73" x2="1554.2577" y1="510.441" y2="510.441"/></g><!--class Rule--><g class="entity" data-entity="Rule" data-source-line="35" data-uid="ent0016" id="entity_Rule"><rect fill="#F1F1F1" height="72" rx="3.75" ry="3.75" style="stroke:#181818;stroke-width:0.75;" width="91.1758" x="1608.915" y="450.441"/><ellipse cx="1631.415" cy="474.441" fill="#B4A7E5" rx="16.5" ry="16.5" style="stroke:#181818;stroke-width:1.5;"/><path d="M1632.9384,470.1754 L1635.4228,470.1754 C1636.0088,470.1754 1636.3134,470.1285 1636.5478,470.0113 C1636.9463,469.7535 1637.2041,469.3082 1637.2041,468.8629 C1637.2041,468.441 1636.9931,468.066 1636.6416,467.8082 C1636.3603,467.6207 1636.1259,467.5504 1635.4228,467.5504 L1627.7119,467.5504 C1627.0556,467.5504 1626.8447,467.5738 1626.5869,467.7379 C1626.1884,467.9957 1625.9306,468.4175 1625.9306,468.8629 C1625.9306,469.2847 1626.1416,469.7066 1626.4931,469.941 C1626.7744,470.1285 1627.0556,470.1754 1627.7119,470.1754 L1630.1963,470.1754 L1630.1963,479.316 L1627.7119,479.316 C1627.0556,479.316 1626.8447,479.3394 1626.5869,479.5035 C1626.1884,479.7379 1625.9306,480.1832 1625.9306,480.605 C1625.9306,481.5191 1626.54,481.941 1627.7119,481.941 L1635.4228,481.941 C1636.5947,481.941 1637.2041,481.5191 1637.2041,480.605 C1637.2041,480.2066 1636.9931,479.8316 1636.6416,479.5738 C1636.3603,479.3629 1636.1025,479.316 1635.4228,479.316 L1632.9384,479.316 L1632.9384,470.1754 Z " fill="#000000"/><text fill="#000000" font-family="sans-serif" font-size="21" font-style="italic" lengthAdjust="spacing" textLength="43.1758" x="1652.415" y="483.3659">Rule</text><line style="stroke:#181818;stroke-width:0.75;" x1="1610.415" x2="1698.5908" y1="498.441" y2="498.441"/><line style="stroke:#181818;stroke-width:0.75;" x1="1610.415" x2="1698.5908" y1="510.441" y2="510.441"/></g><!--class SimpleRule--><g class="entity" data-entity="SimpleRule" data-source-line="38" data-uid="ent0017" id="entity_SimpleRule"><rect fill="#F1F1F1" height="72" rx="3.75" ry="3.75" style="stroke:#181818;stroke-width:0.75;" width="155.3516" x="1612.83" y="612.441"/><ellipse cx="1635.33" cy="636.441" fill="#A9DCDF" rx="16.5" ry="16.5" style="stroke:#181818;stroke-width:1.5;"/><path d="M1637.6269,639.3472 L1638.1191,640.5425 L1637.6972,640.5425 C1637.0175,640.5425 1636.83,640.5894 1636.5722,640.7535 C1636.1503,640.9644 1635.8925,641.4097 1635.8925,641.855 C1635.8925,642.3004 1636.1034,642.6754 1636.455,642.9332 C1636.7128,643.1207 1637.0644,643.191 1637.6972,643.191 L1641.2363,643.191 C1641.7753,643.191 1642.1503,643.1441 1642.3613,643.0035 C1642.7597,642.7925 1643.0175,642.3238 1643.0175,641.855 C1643.0175,641.4566 1642.8066,641.0582 1642.455,640.8004 C1642.1738,640.6129 1641.9394,640.566 1641.2597,640.5425 L1636.1738,628.8004 L1630.5956,628.8004 C1629.9159,628.8004 1629.705,628.8238 1629.4472,628.9879 C1629.0488,629.2457 1628.7909,629.6675 1628.7909,630.1129 C1628.7909,630.5347 1629.0019,630.9332 1629.3769,631.191 C1629.6347,631.3785 1629.9159,631.4254 1630.5956,631.4254 L1632.0488,631.4254 L1628.1816,640.5425 C1627.0566,640.5425 1626.4472,640.9879 1626.4472,641.855 C1626.4472,642.7691 1627.0331,643.191 1628.2284,643.191 L1631.6269,643.191 C1632.1659,643.191 1632.5409,643.1441 1632.7519,643.0035 C1633.1503,642.7691 1633.4081,642.3238 1633.4081,641.855 C1633.4081,641.4566 1633.1972,641.0582 1632.8456,640.8004 C1632.5644,640.5894 1632.33,640.5425 1631.6269,640.5425 L1631.1816,640.5425 L1631.6972,639.3472 L1637.6269,639.3472 Z M1636.4784,636.7222 L1632.7988,636.7222 L1634.6503,632.4097 L1636.4784,636.7222 Z " fill="#000000"/><text fill="#000000" font-family="sans-serif" font-size="21" font-style="italic" lengthAdjust="spacing" textLength="107.3516" x="1656.33" y="645.3659">SimpleRule</text><line style="stroke:#181818;stroke-width:0.75;" x1="1614.33" x2="1766.6816" y1="660.441" y2="660.441"/><line style="stroke:#181818;stroke-width:0.75;" x1="1614.33" x2="1766.6816" y1="672.441" y2="672.441"/></g><!--class ComplexRule--><g class="entity" data-entity="ComplexRule" data-source-line="41" data-uid="ent0018" id="entity_ComplexRule"><rect fill="#F1F1F1" height="72" rx="3.75" ry="3.75" style="stroke:#181818;stroke-width:0.75;" width="174.0205" x="1385.985" y="612.441"/><ellipse cx="1408.485" cy="636.441" fill="#A9DCDF" rx="16.5" ry="16.5" style="stroke:#181818;stroke-width:1.5;"/><path d="M1410.7819,639.3472 L1411.2741,640.5425 L1410.8522,640.5425 C1410.1725,640.5425 1409.985,640.5894 1409.7272,640.7535 C1409.3053,640.9644 1409.0475,641.4097 1409.0475,641.855 C1409.0475,642.3004 1409.2584,642.6754 1409.61,642.9332 C1409.8678,643.1207 1410.2194,643.191 1410.8522,643.191 L1414.3913,643.191 C1414.9303,643.191 1415.3053,643.1441 1415.5163,643.0035 C1415.9147,642.7925 1416.1725,642.3238 1416.1725,641.855 C1416.1725,641.4566 1415.9616,641.0582 1415.61,640.8004 C1415.3288,640.6129 1415.0944,640.566 1414.4147,640.5425 L1409.3288,628.8004 L1403.7506,628.8004 C1403.0709,628.8004 1402.86,628.8238 1402.6022,628.9879 C1402.2038,629.2457 1401.9459,629.6675 1401.9459,630.1129 C1401.9459,630.5347 1402.1569,630.9332 1402.5319,631.191 C1402.7897,631.3785 1403.0709,631.4254 1403.7506,631.4254 L1405.2038,631.4254 L1401.3366,640.5425 C1400.2116,640.5425 1399.6022,640.9879 1399.6022,641.855 C1399.6022,642.7691 1400.1881,643.191 1401.3834,643.191 L1404.7819,643.191 C1405.3209,643.191 1405.6959,643.1441 1405.9069,643.0035 C1406.3053,642.7691 1406.5631,642.3238 1406.5631,641.855 C1406.5631,641.4566 1406.3522,641.0582 1406.0006,640.8004 C1405.7194,640.5894 1405.485,640.5425 1404.7819,640.5425 L1404.3366,640.5425 L1404.8522,639.3472 L1410.7819,639.3472 Z M1409.6334,636.7222 L1405.9538,636.7222 L1407.8053,632.4097 L1409.6334,636.7222 Z " fill="#000000"/><text fill="#000000" font-family="sans-serif" font-size="21" font-style="italic" lengthAdjust="spacing" textLength="126.0205" x="1429.485" y="645.3659">ComplexRule</text><line style="stroke:#181818;stroke-width:0.75;" x1="1387.485" x2="1558.5055" y1="660.441" y2="660.441"/><line style="stroke:#181818;stroke-width:0.75;" x1="1387.485" x2="1558.5055" y1="672.441" y2="672.441"/></g><!--class Board--><g class="entity" data-entity="Board" data-source-line="53" data-uid="ent0026" id="entity_Board"><rect fill="#F1F1F1" height="72" rx="3.75" ry="3.75" style="stroke:#181818;stroke-width:0.75;" width="104.0278" x="1861.98" y="288.441"/><ellipse cx="1884.48" cy="312.441" fill="#ADD1B2" rx="16.5" ry="16.5" style="stroke:#181818;stroke-width:1.5;"/><path d="M1876.98,314.1754 C1876.98,317.9254 1880.1909,320.6441 1884.5738,320.6441 C1886.4253,320.6441 1888.1831,320.1988 1889.3081,319.4254 C1890.2222,318.7925 1890.7144,318.1597 1890.7144,317.5504 C1890.7144,316.8472 1890.0816,316.2379 1889.3316,316.2379 C1888.98,316.2379 1888.6519,316.355 1888.3472,316.6597 C1887.6909,317.316 1887.6909,317.316 1887.4331,317.4566 C1886.7534,317.8082 1885.7925,318.0191 1884.6441,318.0191 C1881.6441,318.0191 1879.7222,316.4957 1879.7222,314.1285 L1879.7222,312.5582 C1879.7222,310.0035 1881.5503,308.1988 1884.105,308.1988 C1884.9722,308.1988 1885.8394,308.4097 1886.5425,308.7847 C1887.2456,309.1832 1887.5034,309.4644 1887.5972,310.0035 C1887.7847,311.0113 1888.1597,311.3863 1888.9566,311.3863 C1889.3784,311.3863 1889.8003,311.1754 1890.0816,310.8472 C1890.2691,310.5894 1890.3394,310.3316 1890.3394,309.6754 L1890.3394,307.6363 C1890.3394,307.0035 1890.3159,306.7925 1890.1284,306.5347 C1889.8706,306.1597 1889.4488,305.9254 1888.9566,305.9254 C1888.4878,305.9254 1888.1831,306.0894 1887.855,306.4879 C1886.0972,305.7379 1885.4409,305.5738 1884.0113,305.5738 C1880.0034,305.5738 1876.98,308.5972 1876.98,312.5347 L1876.98,314.1754 Z " fill="#000000"/><text fill="#000000" font-family="sans-serif" font-size="21" lengthAdjust="spacing" textLength="56.0278" x="1905.48" y="319.3499">Board</text><line style="stroke:#181818;stroke-width:0.75;" x1="1863.48" x2="1964.5078" y1="336.441" y2="336.441"/><line style="stroke:#181818;stroke-width:0.75;" x1="1863.48" x2="1964.5078" y1="348.441" y2="348.441"/></g><!--class FieldState--><g class="entity" data-entity="FieldState" data-source-line="56" data-uid="ent0027" id="entity_FieldState"><rect fill="#F1F1F1" height="72" rx="3.75" ry="3.75" style="stroke:#181818;stroke-width:0.75;" width="142.5416" x="1853.235" y="450.441"/><ellipse cx="1875.735" cy="474.441" fill="#EB937F" rx="16.5" ry="16.5" style="stroke:#181818;stroke-width:1.5;"/><path d="M1874.0241,476.0347 L1875.9928,476.0347 L1875.9928,476.105 C1875.9928,476.7144 1876.0163,476.9488 1876.1803,477.1832 C1876.4381,477.5582 1876.8834,477.816 1877.3522,477.816 C1877.7741,477.816 1878.2194,477.605 1878.4772,477.2769 C1878.6647,476.9957 1878.735,476.7847 1878.735,476.105 L1878.735,473.3394 C1878.735,472.8472 1878.7116,472.6832 1878.6178,472.4254 C1878.4538,471.98 1877.9147,471.605 1877.3522,471.605 C1876.9069,471.605 1876.5084,471.816 1876.2506,472.1441 C1876.0397,472.4254 1875.9928,472.6832 1875.9928,473.3394 L1875.9928,473.4332 L1874.0241,473.4332 L1874.0241,470.1754 L1879.7897,470.1754 L1879.7897,471.3004 C1879.7897,471.8863 1879.8366,472.1675 1880.0006,472.4019 C1880.2584,472.7769 1880.7038,473.0347 1881.1725,473.0347 C1881.6178,473.0347 1882.0163,472.8472 1882.2975,472.4957 C1882.5084,472.2144 1882.5553,472.0035 1882.5553,471.3004 L1882.5553,467.5504 L1871.0006,467.5504 C1870.3209,467.5504 1870.1334,467.5738 1869.8756,467.7379 C1869.4772,467.9957 1869.2194,468.3941 1869.2194,468.8629 C1869.2194,469.2847 1869.4069,469.6832 1869.7819,469.941 C1870.0631,470.1285 1870.3444,470.1754 1871.0006,470.1754 L1871.2819,470.1754 L1871.2819,479.316 L1871.0006,479.316 C1870.3678,479.316 1870.1334,479.3629 1869.8756,479.5035 C1869.4772,479.7379 1869.2194,480.1597 1869.2194,480.605 C1869.2194,481.4722 1869.8288,481.941 1871.0006,481.941 L1883.1178,481.941 L1883.1178,478.1441 C1883.1178,477.5347 1883.0709,477.2769 1882.9069,477.0425 C1882.6491,476.6441 1882.2272,476.4097 1881.735,476.4097 C1881.3131,476.4097 1880.8913,476.6207 1880.61,476.9488 C1880.3991,477.23 1880.3522,477.4644 1880.3522,478.1441 L1880.3522,479.316 L1874.0241,479.316 L1874.0241,476.0347 Z " fill="#000000"/><text fill="#000000" font-family="sans-serif" font-size="21" lengthAdjust="spacing" textLength="94.5416" x="1896.735" y="481.3499">FieldState</text><line style="stroke:#181818;stroke-width:0.75;" x1="1854.735" x2="1994.2766" y1="498.441" y2="498.441"/><line style="stroke:#181818;stroke-width:0.75;" x1="1854.735" x2="1994.2766" y1="510.441" y2="510.441"/></g><!--class Command--><g class="entity" data-entity="Command" data-source-line="63" data-uid="ent0030" id="entity_Command"><rect fill="#F1F1F1" height="72" rx="3.75" ry="3.75" style="stroke:#181818;stroke-width:0.75;" width="144.8516" x="106.08" y="288.441"/><ellipse cx="128.58" cy="312.441" fill="#A9DCDF" rx="16.5" ry="16.5" style="stroke:#181818;stroke-width:1.5;"/><path d="M130.8769,315.3472 L131.3691,316.5425 L130.9472,316.5425 C130.2675,316.5425 130.08,316.5894 129.8222,316.7535 C129.4003,316.9644 129.1425,317.4097 129.1425,317.855 C129.1425,318.3004 129.3534,318.6754 129.705,318.9332 C129.9628,319.1207 130.3144,319.191 130.9472,319.191 L134.4862,319.191 C135.0253,319.191 135.4003,319.1441 135.6112,319.0035 C136.0097,318.7925 136.2675,318.3238 136.2675,317.855 C136.2675,317.4566 136.0566,317.0582 135.705,316.8004 C135.4237,316.6129 135.1894,316.566 134.5097,316.5425 L129.4237,304.8004 L123.8456,304.8004 C123.1659,304.8004 122.955,304.8238 122.6972,304.9879 C122.2988,305.2457 122.0409,305.6675 122.0409,306.1129 C122.0409,306.5347 122.2519,306.9332 122.6269,307.191 C122.8847,307.3785 123.1659,307.4254 123.8456,307.4254 L125.2988,307.4254 L121.4316,316.5425 C120.3066,316.5425 119.6972,316.9879 119.6972,317.855 C119.6972,318.7691 120.2831,319.191 121.4784,319.191 L124.8769,319.191 C125.4159,319.191 125.7909,319.1441 126.0019,319.0035 C126.4003,318.7691 126.6581,318.3238 126.6581,317.855 C126.6581,317.4566 126.4472,317.0582 126.0956,316.8004 C125.8144,316.5894 125.58,316.5425 124.8769,316.5425 L124.4316,316.5425 L124.9472,315.3472 L130.8769,315.3472 Z M129.7284,312.7222 L126.0488,312.7222 L127.9003,308.4097 L129.7284,312.7222 Z " fill="#000000"/><text fill="#000000" font-family="sans-serif" font-size="21" font-style="italic" lengthAdjust="spacing" textLength="96.8516" x="149.58" y="321.3659">Command</text><line style="stroke:#181818;stroke-width:0.75;" x1="107.58" x2="249.4316" y1="336.441" y2="336.441"/><line style="stroke:#181818;stroke-width:0.75;" x1="107.58" x2="249.4316" y1="348.441" y2="348.441"/></g><!--class MoveCommand--><g class="entity" data-entity="MoveCommand" data-source-line="66" data-uid="ent0031" id="entity_MoveCommand"><rect fill="#F1F1F1" height="72" rx="3.75" ry="3.75" style="stroke:#181818;stroke-width:0.75;" width="196.1964" x="68.4" y="126.441"/><ellipse cx="90.9" cy="150.441" fill="#ADD1B2" rx="16.5" ry="16.5" style="stroke:#181818;stroke-width:1.5;"/><path d="M83.4,152.1754 C83.4,155.9254 86.6109,158.6441 90.9938,158.6441 C92.8453,158.6441 94.6031,158.1988 95.7281,157.4254 C96.6422,156.7925 97.1344,156.1597 97.1344,155.5504 C97.1344,154.8472 96.5016,154.2379 95.7516,154.2379 C95.4,154.2379 95.0719,154.355 94.7672,154.6597 C94.1109,155.316 94.1109,155.316 93.8531,155.4566 C93.1734,155.8082 92.2125,156.0191 91.0641,156.0191 C88.0641,156.0191 86.1422,154.4957 86.1422,152.1285 L86.1422,150.5582 C86.1422,148.0035 87.9703,146.1988 90.525,146.1988 C91.3922,146.1988 92.2594,146.4097 92.9625,146.7847 C93.6656,147.1832 93.9234,147.4644 94.0172,148.0035 C94.2047,149.0113 94.5797,149.3863 95.3766,149.3863 C95.7984,149.3863 96.2203,149.1754 96.5016,148.8472 C96.6891,148.5894 96.7594,148.3316 96.7594,147.6754 L96.7594,145.6363 C96.7594,145.0035 96.7359,144.7925 96.5484,144.5347 C96.2906,144.1597 95.8688,143.9254 95.3766,143.9254 C94.9078,143.9254 94.6031,144.0894 94.275,144.4879 C92.5172,143.7379 91.8609,143.5738 90.4313,143.5738 C86.4234,143.5738 83.4,146.5972 83.4,150.5347 L83.4,152.1754 Z " fill="#000000"/><text fill="#000000" font-family="sans-serif" font-size="21" lengthAdjust="spacing" textLength="148.1964" x="111.9" y="157.3499">MoveCommand</text><line style="stroke:#181818;stroke-width:0.75;" x1="69.9" x2="263.0964" y1="174.441" y2="174.441"/><line style="stroke:#181818;stroke-width:0.75;" x1="69.9" x2="263.0964" y1="186.441" y2="186.441"/></g><!--class Builder--><g class="entity" data-entity="Builder" data-source-line="73" data-uid="ent0034" id="entity_Builder"><rect fill="#F1F1F1" height="72" rx="3.75" ry="3.75" style="stroke:#181818;stroke-width:0.75;" width="113.3517" x="403.83" y="288.441"/><ellipse cx="426.33" cy="312.441" fill="#A9DCDF" rx="16.5" ry="16.5" style="stroke:#181818;stroke-width:1.5;"/><path d="M428.6269,315.3472 L429.1191,316.5425 L428.6972,316.5425 C428.0175,316.5425 427.83,316.5894 427.5722,316.7535 C427.1503,316.9644 426.8925,317.4097 426.8925,317.855 C426.8925,318.3004 427.1034,318.6754 427.455,318.9332 C427.7128,319.1207 428.0644,319.191 428.6972,319.191 L432.2363,319.191 C432.7753,319.191 433.1503,319.1441 433.3613,319.0035 C433.7597,318.7925 434.0175,318.3238 434.0175,317.855 C434.0175,317.4566 433.8066,317.0582 433.455,316.8004 C433.1738,316.6129 432.9394,316.566 432.2597,316.5425 L427.1738,304.8004 L421.5956,304.8004 C420.9159,304.8004 420.705,304.8238 420.4472,304.9879 C420.0488,305.2457 419.7909,305.6675 419.7909,306.1129 C419.7909,306.5347 420.0019,306.9332 420.3769,307.191 C420.6347,307.3785 420.9159,307.4254 421.5956,307.4254 L423.0488,307.4254 L419.1816,316.5425 C418.0566,316.5425 417.4472,316.9879 417.4472,317.855 C417.4472,318.7691 418.0331,319.191 419.2284,319.191 L422.6269,319.191 C423.1659,319.191 423.5409,319.1441 423.7519,319.0035 C424.1503,318.7691 424.4081,318.3238 424.4081,317.855 C424.4081,317.4566 424.1972,317.0582 423.8456,316.8004 C423.5644,316.5894 423.33,316.5425 422.6269,316.5425 L422.1816,316.5425 L422.6972,315.3472 L428.6269,315.3472 Z M427.4784,312.7222 L423.7988,312.7222 L425.6503,308.4097 L427.4784,312.7222 Z " fill="#000000"/><text fill="#000000" font-family="sans-serif" font-size="21" font-style="italic" lengthAdjust="spacing" textLength="65.3517" x="447.33" y="321.3659">Builder</text><line style="stroke:#181818;stroke-width:0.75;" x1="405.33" x2="515.6817" y1="336.441" y2="336.441"/><line style="stroke:#181818;stroke-width:0.75;" x1="405.33" x2="515.6817" y1="348.441" y2="348.441"/></g><!--class StandartBuilder--><g class="entity" data-entity="StandartBuilder" data-source-line="74" data-uid="ent0035" id="entity_StandartBuilder"><rect fill="#F1F1F1" height="72" rx="3.75" ry="3.75" style="stroke:#181818;stroke-width:0.75;" width="192.7314" x="347.64" y="126.441"/><ellipse cx="370.14" cy="150.441" fill="#ADD1B2" rx="16.5" ry="16.5" style="stroke:#181818;stroke-width:1.5;"/><path d="M362.64,152.1754 C362.64,155.9254 365.8509,158.6441 370.2338,158.6441 C372.0853,158.6441 373.8431,158.1988 374.9681,157.4254 C375.8822,156.7925 376.3744,156.1597 376.3744,155.5504 C376.3744,154.8472 375.7416,154.2379 374.9916,154.2379 C374.64,154.2379 374.3119,154.355 374.0072,154.6597 C373.3509,155.316 373.3509,155.316 373.0931,155.4566 C372.4134,155.8082 371.4525,156.0191 370.3041,156.0191 C367.3041,156.0191 365.3822,154.4957 365.3822,152.1285 L365.3822,150.5582 C365.3822,148.0035 367.2103,146.1988 369.765,146.1988 C370.6322,146.1988 371.4994,146.4097 372.2025,146.7847 C372.9056,147.1832 373.1634,147.4644 373.2572,148.0035 C373.4447,149.0113 373.8197,149.3863 374.6166,149.3863 C375.0384,149.3863 375.4603,149.1754 375.7416,148.8472 C375.9291,148.5894 375.9994,148.3316 375.9994,147.6754 L375.9994,145.6363 C375.9994,145.0035 375.9759,144.7925 375.7884,144.5347 C375.5306,144.1597 375.1088,143.9254 374.6166,143.9254 C374.1478,143.9254 373.8431,144.0894 373.515,144.4879 C371.7572,143.7379 371.1009,143.5738 369.6713,143.5738 C365.6634,143.5738 362.64,146.5972 362.64,150.5347 L362.64,152.1754 Z " fill="#000000"/><text fill="#000000" font-family="sans-serif" font-size="21" lengthAdjust="spacing" textLength="144.7314" x="391.14" y="157.3499">StandartBuilder</text><line style="stroke:#181818;stroke-width:0.75;" x1="349.14" x2="538.8714" y1="174.441" y2="174.441"/><line style="stroke:#181818;stroke-width:0.75;" x1="349.14" x2="538.8714" y1="186.441" y2="186.441"/></g><!--reverse link GameState to WhiteTurn--><g class="link" data-entity-1="GameState" data-entity-2="WhiteTurn" data-source-line="23" data-uid="lnk10" id="link_GameState_WhiteTurn"><path codeLine="23" d="M967.4409,383.4584 C984.7059,409.9784 993.6,423.636 1010.835,450.126" fill="none" id="GameState-backto-WhiteTurn" style="stroke:#181818;stroke-width:1.5;stroke-dasharray:10.5,10.5;"/><polygon fill="none" points="952.71,360.831,959.8984,388.3687,974.9834,378.5481,952.71,360.831" style="stroke:#181818;stroke-width:1.5;"/></g><!--reverse link GameState to BlackTurn--><g class="link" data-entity-1="GameState" data-entity-2="BlackTurn" data-source-line="24" data-uid="lnk11" id="link_GameState_BlackTurn"><path codeLine="24" d="M1019.692,373.4738 C1069.537,399.8888 1113.87,423.396 1163.805,449.856" fill="none" id="GameState-backto-BlackTurn" style="stroke:#181818;stroke-width:1.5;stroke-dasharray:10.5,10.5;"/><polygon fill="none" points="995.835,360.831,1015.4777,381.4262,1023.9063,365.5215,995.835,360.831" style="stroke:#181818;stroke-width:1.5;"/></g><!--reverse link GameState to EndOfGame--><g class="link" data-entity-1="GameState" data-entity-2="EndOfGame" data-source-line="25" data-uid="lnk12" id="link_GameState_EndOfGame"><path codeLine="25" d="M892.5591,383.4584 C875.2941,409.9784 866.4,423.636 849.165,450.126" fill="none" id="GameState-backto-EndOfGame" style="stroke:#181818;stroke-width:1.5;stroke-dasharray:10.5,10.5;"/><polygon fill="none" points="907.29,360.831,885.0166,378.5481,900.1016,388.3687,907.29,360.831" style="stroke:#181818;stroke-width:1.5;"/></g><!--reverse link Rule to SimpleRule--><g class="link" data-entity-1="Rule" data-entity-2="SimpleRule" data-source-line="44" data-uid="lnk19" id="link_Rule_SimpleRule"><path codeLine="44" d="M1668.363,549.1654 C1674.363,575.6854 1676.625,585.636 1682.625,612.126" fill="none" id="Rule-backto-SimpleRule" style="stroke:#181818;stroke-width:1.5;stroke-dasharray:10.5,10.5;"/><polygon fill="none" points="1662.405,522.831,1659.5849,551.1514,1677.1412,547.1794,1662.405,522.831" style="stroke:#181818;stroke-width:1.5;"/></g><!--reverse link Rule to ComplexRule--><g class="link" data-entity-1="Rule" data-entity-2="ComplexRule" data-source-line="45" data-uid="lnk20" id="link_Rule_ComplexRule"><path codeLine="45" d="M1587.5003,528.6967 C1570.2803,542.6467 1573.11,543.441 1556.25,558.441 C1535.805,576.636 1512.285,595.851 1494.495,611.721" fill="none" id="Rule-backto-ComplexRule" style="stroke:#181818;stroke-width:1.5;stroke-dasharray:10.5,10.5;"/><polygon fill="none" points="1608.48,511.701,1581.8351,521.7035,1593.1656,535.6899,1608.48,511.701" style="stroke:#181818;stroke-width:1.5;"/></g><!--link ComplexRule to Rule--><g class="link" data-entity-1="ComplexRule" data-entity-2="Rule" data-source-line="46" data-uid="lnk21" id="link_ComplexRule_Rule"><path codeLine="46" d="M1557.2398,601.2484 C1579.4248,585.3784 1588.305,576.636 1608.75,558.441 C1621.29,547.281 1628.5496,541.2838 1638.8546,529.7638" fill="none" id="ComplexRule-Rule" style="stroke:#181818;stroke-width:1.5;"/><polygon fill="#181818" points="1542.6,611.721,1553.4108,611.3646,1557.2398,601.2484,1546.4291,601.6047,1542.6,611.721" style="stroke:#181818;stroke-width:1.5;"/><polygon fill="#181818" points="1644.855,523.056,1631.3825,529.1175,1639.8547,528.6459,1640.3263,537.118,1644.855,523.056" style="stroke:#181818;stroke-width:1.5;"/></g><!--reverse link ComplexRule to RuleSet--><g class="link" data-entity-1="ComplexRule" data-entity-2="RuleSet" data-source-line="47" data-uid="lnk22" id="link_ComplexRule_RuleSet"><path codeLine="47" d="M1432.3641,597.4094 C1421.1141,582.0494 1420.275,577.671 1414.5,558.441 C1400.685,512.466 1404.045,497.286 1414.5,450.441 C1421.625,418.506 1437.885,385.101 1451.445,360.936" fill="none" id="ComplexRule-backto-RuleSet" style="stroke:#181818;stroke-width:1.5;"/><polygon fill="#181818" points="1443,611.931,1442.5226,601.1249,1432.3641,597.4094,1432.8415,608.2155,1443,611.931" style="stroke:#181818;stroke-width:1.5;"/></g><!--reverse link RuleSet to Rule--><g class="link" data-entity-1="RuleSet" data-entity-2="Rule" data-source-line="48" data-uid="lnk23" id="link_RuleSet_Rule"><path codeLine="48" d="M1526.3639,372.6926 C1556.6339,399.2126 1584.525,423.636 1614.765,450.126" fill="none" id="RuleSet-backto-Rule" style="stroke:#181818;stroke-width:1.5;"/><polygon fill="#181818" points="1512.825,360.831,1515.6406,371.2748,1526.3639,372.6926,1523.5483,362.2488,1512.825,360.831" style="stroke:#181818;stroke-width:1.5;"/></g><!--link RuleSet to Iterator--><g class="link" data-entity-1="RuleSet" data-entity-2="Iterator" data-source-line="49" data-uid="lnk24" id="link_RuleSet_Iterator"><path codeLine="49" d="M1478.595,360.831 C1482.855,387.351 1484.4028,396.9761 1488.6478,423.4661" fill="none" id="RuleSet-to-Iterator" style="stroke:#181818;stroke-width:1.5;stroke-dasharray:10.5,10.5;"/><polygon fill="none" points="1492.92,450.126,1497.5344,422.042,1479.7612,424.8902,1492.92,450.126" style="stroke:#181818;stroke-width:1.5;"/></g><!--reverse link Board to FieldState--><g class="link" data-entity-1="Board" data-entity-2="FieldState" data-source-line="59" data-uid="lnk28" id="link_Board_FieldState"><path codeLine="59" d="M1917.4885,378.7924 C1919.2285,405.3124 1920.45,423.636 1922.205,450.126" fill="none" id="Board-backto-FieldState" style="stroke:#181818;stroke-width:1.5;"/><polygon fill="#181818" points="1916.31,360.831,1910.9121,370.2045,1917.4885,378.7924,1922.8864,369.4188,1916.31,360.831" style="stroke:#181818;stroke-width:1.5;"/></g><!--link MoveCommand to Command--><g class="link" data-entity-1="MoveCommand" data-entity-2="Command" data-source-line="69" data-uid="lnk32" id="link_MoveCommand_Command"><path codeLine="69" d="M169.14,198.831 C171.135,225.351 171.8523,234.7122 173.8473,261.2022" fill="none" id="MoveCommand-to-Command" style="stroke:#181818;stroke-width:1.5;"/><polygon fill="none" points="175.875,288.126,182.8219,260.5263,164.8727,261.8781,175.875,288.126" style="stroke:#181818;stroke-width:1.5;"/></g><!--link StandartBuilder to Builder--><g class="link" data-entity-1="StandartBuilder" data-entity-2="Builder" data-source-line="75" data-uid="lnk36" id="link_StandartBuilder_Builder"><path codeLine="75" d="M447.615,198.831 C450.375,225.351 451.3571,234.7798 454.1021,261.2698" fill="none" id="StandartBuilder-to-Builder" style="stroke:#181818;stroke-width:1.5;"/><polygon fill="none" points="456.885,288.126,463.0541,260.3421,445.15,262.1974,456.885,288.126" style="stroke:#181818;stroke-width:1.5;"/></g><!--reverse link Game to RuleSet--><g class="link" data-entity-1="Game" data-entity-2="RuleSet" data-source-line="78" data-uid="lnk37" id="link_Game_RuleSet"><path codeLine="78" d="M806.2931,166.8219 C932.3681,172.2969 1227.675,188.391 1326,223.941 C1365.645,238.281 1404.96,265.626 1432.935,287.946" fill="none" id="Game-backto-RuleSet" style="stroke:#181818;stroke-width:1.5;"/><polygon fill="none" points="788.31,166.041,797.0412,172.4258,806.2931,166.8219,797.5618,160.4371,788.31,166.041" style="stroke:#181818;stroke-width:1.5;"/></g><!--reverse link Game to Board--><g class="link" data-entity-1="Game" data-entity-2="Board" data-source-line="79" data-uid="lnk38" id="link_Game_Board"><path codeLine="79" d="M806.3057,165.4311 C1007.8457,169.8561 1698.54,187.476 1792.5,223.941 C1827.51,237.531 1860.075,265.236 1882.665,287.886" fill="none" id="Game-backto-Board" style="stroke:#181818;stroke-width:1.5;"/><polygon fill="#181818" points="788.31,165.036,797.1761,171.2321,806.3057,165.4311,797.4395,159.235,788.31,165.036" style="stroke:#181818;stroke-width:1.5;"/></g><!--link Game to GameState--><g class="link" data-entity-1="Game" data-entity-2="GameState" data-source-line="80" data-uid="lnk39" id="link_Game_GameState"><path codeLine="80" d="M804.0898,194.9656 C823.8298,204.8506 829.65,209.406 847.5,223.941 C870.06,242.301 885.6225,260.318 900.7575,280.718" fill="none" id="Game-GameState" style="stroke:#181818;stroke-width:1.5;"/><polygon fill="#181818" points="787.995,186.906,793.3559,196.3007,804.0898,194.9656,798.7289,185.5709,787.995,186.906" style="stroke:#181818;stroke-width:1.5;"/><polygon fill="#181818" points="906.12,287.946,902.8949,273.529,901.6512,281.9227,893.2576,280.679,906.12,287.946" style="stroke:#181818;stroke-width:1.5;"/></g><!--reverse link Game to Player--><g class="link" data-entity-1="Game" data-entity-2="Player" data-source-line="81" data-uid="lnk40" id="link_Game_Player"><path codeLine="81" d="M705.5044,214.3726 C690.0094,240.8926 677.85,261.636 662.355,288.126" fill="none" id="Game-backto-Player" style="stroke:#181818;stroke-width:1.5;"/><polygon fill="#181818" points="714.585,198.831,704.8641,203.5749,705.5044,214.3726,715.2252,209.6287,714.585,198.831" style="stroke:#181818;stroke-width:1.5;"/></g><!--link Game to Command--><g class="link" data-entity-1="Game" data-entity-2="Command" data-source-line="82" data-uid="lnk41" id="link_Game_Command"><path codeLine="82" d="M681.705,176.031 C648.075,183.321 603.66,192.351 564,198.441 C457.98,214.731 424.71,186.996 324,223.941 C284.7,238.356 252.7974,260.0533 225.1224,282.3583" fill="none" id="Game-to-Command" style="stroke:#181818;stroke-width:1.5;"/><polygon fill="#181818" points="218.115,288.006,232.3912,284.206,223.9545,283.2996,224.861,274.8628,218.115,288.006" style="stroke:#181818;stroke-width:1.5;"/></g><!--link Game to Builder--><g class="link" data-entity-1="Game" data-entity-2="Builder" data-source-line="83" data-uid="lnk42" id="link_Game_Builder"><path codeLine="83" d="M681.675,168.441 C635.865,174.636 570.03,189.276 523.5,223.941 C501.6,240.246 489.3314,258.5347 478.8314,279.9547" fill="none" id="Game-to-Builder" style="stroke:#181818;stroke-width:1.5;"/><polygon fill="#181818" points="474.87,288.036,486.1996,278.555,478.1712,281.3016,475.4246,273.2731,474.87,288.036" style="stroke:#181818;stroke-width:1.5;"/></g><!--SRC=[XLDDJuGm4BtlhvYp2IGUl9azi5cDXur6J3mFT5R9bdPJYj6u_7TfeH-m42-4lZTzR-QrpKla1BVftUQCvGa_20wI4OVVpGQWvDWqy8WrzMk0Bc0l77z81THjpZLgQYmEK0bDweWbMGbBZOpTuxJUFojDRwqIIsJ6U-KrSY_Oyz6tvydWTdz9qw2_H7hz9TBhpyTKBVTJ3gsyzaXEUjf82E2f_q4jrHfljayvB1gjiDIZVbxLPqx_bksaAVk-hhE87IeepOXehsLYhPiasGwrIvIRtWkQ91m-0TFqilLXp5Cj92esIJMBa76GlMXhUAY8iuKBDTGRvr1XNG0YdrBMDGhc3j17k1jmBsc-KJC7-KMh9J6P9FsGu-BQlMWhpaZDpJC7Tv5bFu1WgFICdCFMS5ouKEsp03avd04pyTYW768Frr_z21sVkKDCMHZBGywu-mC0]--></g></svg>