<svg xmlns="http://www.w3.org/2000/svg" xmlns:xlink="http://www.w3.org/1999/xlink" contentStyleType="text/css" data-diagram-type="CLASS" height="763.5px" preserveAspectRatio="none" style="width:2100px;height:763px;background:#FFFFFF;" version="1.1" viewBox="0 0 2100 763" width="2100px" zoomAndPan="magnify"><defs/><g><!--cluster Model--><g class="cluster" data-entity="Model" data-source-line="2" data-uid="ent0002" id="cluster_Model"><path d="M12.75,9.903 L79.1608,9.903 A5.625,5.625 0 0 1 82.9108,13.653 L93.4108,47.5048 L2085.75,47.5048 A3.75,3.75 0 0 1 2089.5,51.2548 L2089.5,750.153 A3.75,3.75 0 0 1 2085.75,753.903 L12.75,753.903 A3.75,3.75 0 0 1 9,750.153 L9,13.653 A3.75,3.75 0 0 1 12.75,9.903" fill="none" style="stroke:#000000;stroke-width:2.25;"/><line style="stroke:#000000;stroke-width:2.25;" x1="9" x2="93.4108" y1="47.5048" y2="47.5048"/><text fill="#000000" font-family="sans-serif" font-size="21" font-weight="bold" lengthAdjust="spacing" textLength="64.9108" x="15" y="35.3519">Model</text></g><!--cluster States--><g class="cluster" data-entity="States" data-source-line="10" data-uid="ent0005" id="cluster_States"><path d="M171.75,240.903 L238.5807,240.903 A5.625,5.625 0 0 1 242.3307,244.653 L252.8307,278.5048 L785.25,278.5048 A3.75,3.75 0 0 1 789,282.2548 L789,552.153 A3.75,3.75 0 0 1 785.25,555.903 L171.75,555.903 A3.75,3.75 0 0 1 168,552.153 L168,244.653 A3.75,3.75 0 0 1 171.75,240.903" fill="none" style="stroke:#000000;stroke-width:2.25;"/><line style="stroke:#000000;stroke-width:2.25;" x1="168" x2="252.8307" y1="278.5048" y2="278.5048"/><text fill="#000000" font-family="sans-serif" font-size="21" font-weight="bold" lengthAdjust="spacing" textLength="65.3307" x="174" y="266.3519">States</text></g><!--cluster rules--><g class="cluster" data-entity="rules" data-source-line="28" data-uid="ent0013" id="cluster_rules"><path d="M828.75,240.903 L882.8338,240.903 A5.625,5.625 0 0 1 886.5838,244.653 L897.0838,278.5048 L1242.75,278.5048 A3.75,3.75 0 0 1 1246.5,282.2548 L1246.5,714.153 A3.75,3.75 0 0 1 1242.75,717.903 L828.75,717.903 A3.75,3.75 0 0 1 825,714.153 L825,244.653 A3.75,3.75 0 0 1 828.75,240.903" fill="none" style="stroke:#000000;stroke-width:2.25;"/><line style="stroke:#000000;stroke-width:2.25;" x1="825" x2="897.0838" y1="278.5048" y2="278.5048"/><text fill="#000000" font-family="sans-serif" font-size="21" font-weight="bold" lengthAdjust="spacing" textLength="52.5838" x="831" y="266.3519">rules</text></g><!--cluster board--><g class="cluster" data-entity="board" data-source-line="52" data-uid="ent0025" id="cluster_board"><path d="M1286.25,240.903 L1349.5528,240.903 A5.625,5.625 0 0 1 1353.3028,244.653 L1363.8028,278.5048 L1470.75,278.5048 A3.75,3.75 0 0 1 1474.5,282.2548 L1474.5,552.153 A3.75,3.75 0 0 1 1470.75,555.903 L1286.25,555.903 A3.75,3.75 0 0 1 1282.5,552.153 L1282.5,244.653 A3.75,3.75 0 0 1 1286.25,240.903" fill="none" style="stroke:#000000;stroke-width:2.25;"/><line style="stroke:#000000;stroke-width:2.25;" x1="1282.5" x2="1363.8028" y1="278.5048" y2="278.5048"/><text fill="#000000" font-family="sans-serif" font-size="21" font-weight="bold" lengthAdjust="spacing" textLength="61.8028" x="1288.5" y="266.3519">board</text></g><!--cluster commands--><g class="cluster" data-entity="commands" data-source-line="62" data-uid="ent0029" id="cluster_commands"><path d="M1514.25,78.903 L1630.9975,78.903 A5.625,5.625 0 0 1 1634.7475,82.653 L1645.2475,116.5048 L1761.75,116.5048 A3.75,3.75 0 0 1 1765.5,120.2548 L1765.5,390.153 A3.75,3.75 0 0 1 1761.75,393.903 L1514.25,393.903 A3.75,3.75 0 0 1 1510.5,390.153 L1510.5,82.653 A3.75,3.75 0 0 1 1514.25,78.903" fill="none" style="stroke:#000000;stroke-width:2.25;"/><line style="stroke:#000000;stroke-width:2.25;" x1="1510.5" x2="1645.2475" y1="116.5048" y2="116.5048"/><text fill="#000000" font-family="sans-serif" font-size="21" font-weight="bold" lengthAdjust="spacing" textLength="115.2475" x="1516.5" y="104.3519">commands</text></g><!--cluster builder--><g class="cluster" data-entity="builder" data-source-line="72" data-uid="ent0033" id="cluster_builder"><path d="M1805.25,78.903 L1881.8877,78.903 A5.625,5.625 0 0 1 1885.6377,82.653 L1896.1377,116.5048 L2049.75,116.5048 A3.75,3.75 0 0 1 2053.5,120.2548 L2053.5,390.153 A3.75,3.75 0 0 1 2049.75,393.903 L1805.25,393.903 A3.75,3.75 0 0 1 1801.5,390.153 L1801.5,82.653 A3.75,3.75 0 0 1 1805.25,78.903" fill="none" style="stroke:#000000;stroke-width:2.25;"/><line style="stroke:#000000;stroke-width:2.25;" x1="1801.5" x2="1896.1377" y1="116.5048" y2="116.5048"/><text fill="#000000" font-family="sans-serif" font-size="21" font-weight="bold" lengthAdjust="spacing" textLength="75.1377" x="1807.5" y="104.3519">builder</text></g><!--class Game--><g class="entity" data-entity="Game" data-source-line="4" data-uid="ent0003" id="entity_Game"><rect fill="#F1F1F1" height="72" rx="3.75" ry="3.75" style="stroke:#181818;stroke-width:0.75;" width="106.5478" x="1164.75" y="135.903"/><ellipse cx="1187.25" cy="159.903" fill="#ADD1B2" rx="16.5" ry="16.5" style="stroke:#181818;stroke-width:1.5;"/><path d="M1191.7031,168.3639 Q1190.8359,168.8092 1189.875,169.0202 Q1188.9141,169.2545 1187.8594,169.2545 Q1184.1094,169.2545 1182.1172,166.7936 Q1180.1484,164.3092 1180.1484,159.6217 Q1180.1484,154.9342 1182.1172,152.4498 Q1184.1094,149.9655 1187.8594,149.9655 Q1188.9141,149.9655 1189.875,150.1998 Q1190.8594,150.4342 1191.7031,150.8795 L1191.7031,154.9577 Q1190.7656,154.0905 1189.875,153.692 Q1188.9844,153.2702 1188.0469,153.2702 Q1186.0313,153.2702 1185,154.8873 Q1183.9688,156.4811 1183.9688,159.6217 Q1183.9688,162.7623 1185,164.3795 Q1186.0313,165.9733 1188.0469,165.9733 Q1188.9844,165.9733 1189.875,165.5748 Q1190.7656,165.153 1191.7031,164.2858 L1191.7031,168.3639 Z " fill="#000000"/><text fill="#000000" font-family="sans-serif" font-size="21" lengthAdjust="spacing" textLength="58.5478" x="1208.25" y="168.0509">Game</text><line style="stroke:#181818;stroke-width:0.75;" x1="1166.25" x2="1269.7978" y1="183.903" y2="183.903"/><line style="stroke:#181818;stroke-width:0.75;" x1="1166.25" x2="1269.7978" y1="195.903" y2="195.903"/></g><!--class Player--><g class="entity" data-entity="Player" data-source-line="7" data-uid="ent0004" id="entity_Player"><rect fill="#F1F1F1" height="72" rx="3.75" ry="3.75" style="stroke:#181818;stroke-width:0.75;" width="109.1308" x="33.75" y="297.903"/><ellipse cx="56.25" cy="321.903" fill="#ADD1B2" rx="16.5" ry="16.5" style="stroke:#181818;stroke-width:1.5;"/><path d="M60.7031,330.3639 Q59.8359,330.8092 58.875,331.0202 Q57.9141,331.2545 56.8594,331.2545 Q53.1094,331.2545 51.1172,328.7936 Q49.1484,326.3092 49.1484,321.6217 Q49.1484,316.9342 51.1172,314.4498 Q53.1094,311.9655 56.8594,311.9655 Q57.9141,311.9655 58.875,312.1998 Q59.8594,312.4342 60.7031,312.8795 L60.7031,316.9577 Q59.7656,316.0905 58.875,315.692 Q57.9844,315.2702 57.0469,315.2702 Q55.0313,315.2702 54,316.8873 Q52.9688,318.4811 52.9688,321.6217 Q52.9688,324.7623 54,326.3795 Q55.0313,327.9733 57.0469,327.9733 Q57.9844,327.9733 58.875,327.5748 Q59.7656,327.153 60.7031,326.2858 L60.7031,330.3639 Z " fill="#000000"/><text fill="#000000" font-family="sans-serif" font-size="21" lengthAdjust="spacing" textLength="61.1308" x="77.25" y="330.0509">Player</text><line style="stroke:#181818;stroke-width:0.75;" x1="35.25" x2="141.3808" y1="345.903" y2="345.903"/><line style="stroke:#181818;stroke-width:0.75;" x1="35.25" x2="141.3808" y1="357.903" y2="357.903"/></g><!--class GameState--><g class="entity" data-entity="GameState" data-source-line="11" data-uid="ent0006" id="entity_GameState"><rect fill="#F1F1F1" height="72" rx="3.75" ry="3.75" style="stroke:#181818;stroke-width:0.75;" width="149.9756" x="514.5" y="297.903"/><ellipse cx="537" cy="321.903" fill="#B4A7E5" rx="16.5" ry="16.5" style="stroke:#181818;stroke-width:1.5;"/><path d="M530.8828,315.5514 L530.8828,312.317 L541.9688,312.317 L541.9688,315.5514 L538.2656,315.5514 L538.2656,327.6686 L541.9688,327.6686 L541.9688,330.903 L530.8828,330.903 L530.8828,327.6686 L534.5859,327.6686 L534.5859,315.5514 L530.8828,315.5514 Z " fill="#000000"/><text fill="#000000" font-family="sans-serif" font-size="21" font-style="italic" lengthAdjust="spacing" textLength="101.9756" x="558" y="330.0509">GameState</text><line style="stroke:#181818;stroke-width:0.75;" x1="516" x2="662.9756" y1="345.903" y2="345.903"/><line style="stroke:#181818;stroke-width:0.75;" x1="516" x2="662.9756" y1="357.903" y2="357.903"/></g><!--class WhiteTurn--><g class="entity" data-entity="WhiteTurn" data-source-line="14" data-uid="ent0007" id="entity_WhiteTurn"><rect fill="#F1F1F1" height="72" rx="3.75" ry="3.75" style="stroke:#181818;stroke-width:0.75;" width="151.6556" x="413.25" y="459.903"/><ellipse cx="435.75" cy="483.903" fill="#ADD1B2" rx="16.5" ry="16.5" style="stroke:#181818;stroke-width:1.5;"/><path d="M440.2031,492.3639 Q439.3359,492.8092 438.375,493.0202 Q437.4141,493.2545 436.3594,493.2545 Q432.6094,493.2545 430.6172,490.7936 Q428.6484,488.3092 428.6484,483.6217 Q428.6484,478.9342 430.6172,476.4498 Q432.6094,473.9655 436.3594,473.9655 Q437.4141,473.9655 438.375,474.1998 Q439.3594,474.4342 440.2031,474.8795 L440.2031,478.9577 Q439.2656,478.0905 438.375,477.692 Q437.4844,477.2702 436.5469,477.2702 Q434.5313,477.2702 433.5,478.8873 Q432.4688,480.4811 432.4688,483.6217 Q432.4688,486.7623 433.5,488.3795 Q434.5313,489.9733 436.5469,489.9733 Q437.4844,489.9733 438.375,489.5748 Q439.2656,489.153 440.2031,488.2858 L440.2031,492.3639 Z " fill="#000000"/><text fill="#000000" font-family="sans-serif" font-size="21" lengthAdjust="spacing" textLength="103.6556" x="456.75" y="492.0509">WhiteTurn</text><line style="stroke:#181818;stroke-width:0.75;" x1="414.75" x2="563.4056" y1="507.903" y2="507.903"/><line style="stroke:#181818;stroke-width:0.75;" x1="414.75" x2="563.4056" y1="519.903" y2="519.903"/></g><!--class BlackTurn--><g class="entity" data-entity="BlackTurn" data-source-line="17" data-uid="ent0008" id="entity_BlackTurn"><rect fill="#F1F1F1" height="72" rx="3.75" ry="3.75" style="stroke:#181818;stroke-width:0.75;" width="146.4476" x="618" y="459.903"/><ellipse cx="640.5" cy="483.903" fill="#ADD1B2" rx="16.5" ry="16.5" style="stroke:#181818;stroke-width:1.5;"/><path d="M644.9531,492.3639 Q644.0859,492.8092 643.125,493.0202 Q642.1641,493.2545 641.1094,493.2545 Q637.3594,493.2545 635.3672,490.7936 Q633.3984,488.3092 633.3984,483.6217 Q633.3984,478.9342 635.3672,476.4498 Q637.3594,473.9655 641.1094,473.9655 Q642.1641,473.9655 643.125,474.1998 Q644.1094,474.4342 644.9531,474.8795 L644.9531,478.9577 Q644.0156,478.0905 643.125,477.692 Q642.2344,477.2702 641.2969,477.2702 Q639.2813,477.2702 638.25,478.8873 Q637.2188,480.4811 637.2188,483.6217 Q637.2188,486.7623 638.25,488.3795 Q639.2813,489.9733 641.2969,489.9733 Q642.2344,489.9733 643.125,489.5748 Q644.0156,489.153 644.9531,488.2858 L644.9531,492.3639 Z " fill="#000000"/><text fill="#000000" font-family="sans-serif" font-size="21" lengthAdjust="spacing" textLength="98.4476" x="661.5" y="492.0509">BlackTurn</text><line style="stroke:#181818;stroke-width:0.75;" x1="619.5" x2="762.9476" y1="507.903" y2="507.903"/><line style="stroke:#181818;stroke-width:0.75;" x1="619.5" x2="762.9476" y1="519.903" y2="519.903"/></g><!--class EndOfGame--><g class="entity" data-entity="EndOfGame" data-source-line="20" data-uid="ent0009" id="entity_EndOfGame"><rect fill="#F1F1F1" height="72" rx="3.75" ry="3.75" style="stroke:#181818;stroke-width:0.75;" width="167.7415" x="192" y="459.903"/><ellipse cx="214.5" cy="483.903" fill="#ADD1B2" rx="16.5" ry="16.5" style="stroke:#181818;stroke-width:1.5;"/><path d="M218.9531,492.3639 Q218.0859,492.8092 217.125,493.0202 Q216.1641,493.2545 215.1094,493.2545 Q211.3594,493.2545 209.3672,490.7936 Q207.3984,488.3092 207.3984,483.6217 Q207.3984,478.9342 209.3672,476.4498 Q211.3594,473.9655 215.1094,473.9655 Q216.1641,473.9655 217.125,474.1998 Q218.1094,474.4342 218.9531,474.8795 L218.9531,478.9577 Q218.0156,478.0905 217.125,477.692 Q216.2344,477.2702 215.2969,477.2702 Q213.2813,477.2702 212.25,478.8873 Q211.2188,480.4811 211.2188,483.6217 Q211.2188,486.7623 212.25,488.3795 Q213.2813,489.9733 215.2969,489.9733 Q216.2344,489.9733 217.125,489.5748 Q218.0156,489.153 218.9531,488.2858 L218.9531,492.3639 Z " fill="#000000"/><text fill="#000000" font-family="sans-serif" font-size="21" lengthAdjust="spacing" textLength="119.7415" x="235.5" y="492.0509">EndOfGame</text><line style="stroke:#181818;stroke-width:0.75;" x1="193.5" x2="358.2415" y1="507.903" y2="507.903"/><line style="stroke:#181818;stroke-width:0.75;" x1="193.5" x2="358.2415" y1="519.903" y2="519.903"/></g><!--class RuleSet--><g class="entity" data-entity="RuleSet" data-source-line="29" data-uid="ent0014" id="entity_RuleSet"><rect fill="#F1F1F1" height="72" rx="3.75" ry="3.75" style="stroke:#181818;stroke-width:0.75;" width="122.2557" x="1006.5" y="297.903"/><ellipse cx="1029" cy="321.903" fill="#ADD1B2" rx="16.5" ry="16.5" style="stroke:#181818;stroke-width:1.5;"/><path d="M1033.4531,330.3639 Q1032.5859,330.8092 1031.625,331.0202 Q1030.6641,331.2545 1029.6094,331.2545 Q1025.8594,331.2545 1023.8672,328.7936 Q1021.8984,326.3092 1021.8984,321.6217 Q1021.8984,316.9342 1023.8672,314.4498 Q1025.8594,311.9655 1029.6094,311.9655 Q1030.6641,311.9655 1031.625,312.1998 Q1032.6094,312.4342 1033.4531,312.8795 L1033.4531,316.9577 Q1032.5156,316.0905 1031.625,315.692 Q1030.7344,315.2702 1029.7969,315.2702 Q1027.7813,315.2702 1026.75,316.8873 Q1025.7188,318.4811 1025.7188,321.6217 Q1025.7188,324.7623 1026.75,326.3795 Q1027.7813,327.9733 1029.7969,327.9733 Q1030.7344,327.9733 1031.625,327.5748 Q1032.5156,327.153 1033.4531,326.2858 L1033.4531,330.3639 Z " fill="#000000"/><text fill="#000000" font-family="sans-serif" font-size="21" lengthAdjust="spacing" textLength="74.2557" x="1050" y="330.0509">RuleSet</text><line style="stroke:#181818;stroke-width:0.75;" x1="1008" x2="1127.2557" y1="345.903" y2="345.903"/><line style="stroke:#181818;stroke-width:0.75;" x1="1008" x2="1127.2557" y1="357.903" y2="357.903"/></g><!--class Iterator--><g class="entity" data-entity="Iterator" data-source-line="32" data-uid="ent0015" id="entity_Iterator"><rect fill="#F1F1F1" height="72" rx="3.75" ry="3.75" style="stroke:#181818;stroke-width:0.75;" width="119.6937" x="930" y="459.903"/><ellipse cx="952.5" cy="483.903" fill="#B4A7E5" rx="16.5" ry="16.5" style="stroke:#181818;stroke-width:1.5;"/><path d="M946.3828,477.5514 L946.3828,474.317 L957.4688,474.317 L957.4688,477.5514 L953.7656,477.5514 L953.7656,489.6686 L957.4688,489.6686 L957.4688,492.903 L946.3828,492.903 L946.3828,489.6686 L950.0859,489.6686 L950.0859,477.5514 L946.3828,477.5514 Z " fill="#000000"/><text fill="#000000" font-family="sans-serif" font-size="21" font-style="italic" lengthAdjust="spacing" textLength="71.6937" x="973.5" y="492.0509">Iterator</text><line style="stroke:#181818;stroke-width:0.75;" x1="931.5" x2="1048.1937" y1="507.903" y2="507.903"/><line style="stroke:#181818;stroke-width:0.75;" x1="931.5" x2="1048.1937" y1="519.903" y2="519.903"/></g><!--class Rule--><g class="entity" data-entity="Rule" data-source-line="35" data-uid="ent0016" id="entity_Rule"><rect fill="#F1F1F1" height="72" rx="3.75" ry="3.75" style="stroke:#181818;stroke-width:0.75;" width="88.0889" x="1103.25" y="459.903"/><ellipse cx="1125.75" cy="483.903" fill="#B4A7E5" rx="16.5" ry="16.5" style="stroke:#181818;stroke-width:1.5;"/><path d="M1119.6328,477.5514 L1119.6328,474.317 L1130.7188,474.317 L1130.7188,477.5514 L1127.0156,477.5514 L1127.0156,489.6686 L1130.7188,489.6686 L1130.7188,492.903 L1119.6328,492.903 L1119.6328,489.6686 L1123.3359,489.6686 L1123.3359,477.5514 L1119.6328,477.5514 Z " fill="#000000"/><text fill="#000000" font-family="sans-serif" font-size="21" font-style="italic" lengthAdjust="spacing" textLength="40.0889" x="1146.75" y="492.0509">Rule</text><line style="stroke:#181818;stroke-width:0.75;" x1="1104.75" x2="1189.8389" y1="507.903" y2="507.903"/><line style="stroke:#181818;stroke-width:0.75;" x1="1104.75" x2="1189.8389" y1="519.903" y2="519.903"/></g><!--class SimpleRule--><g class="entity" data-entity="SimpleRule" data-source-line="38" data-uid="ent0017" id="entity_SimpleRule"><rect fill="#F1F1F1" height="72" rx="3.75" ry="3.75" style="stroke:#181818;stroke-width:0.75;" width="150.5426" x="1072.5" y="621.903"/><ellipse cx="1095" cy="645.903" fill="#A9DCDF" rx="16.5" ry="16.5" style="stroke:#181818;stroke-width:1.5;"/><path d="M1095.1641,638.9186 L1093.4297,646.5358 L1096.9219,646.5358 L1095.1641,638.9186 Z M1092.9375,635.567 L1097.4141,635.567 L1102.4531,654.153 L1098.7734,654.153 L1097.625,649.5592 L1092.7031,649.5592 L1091.5781,654.153 L1087.9219,654.153 L1092.9375,635.567 Z " fill="#000000"/><text fill="#000000" font-family="sans-serif" font-size="21" font-style="italic" lengthAdjust="spacing" textLength="102.5426" x="1116" y="654.0509">SimpleRule</text><line style="stroke:#181818;stroke-width:0.75;" x1="1074" x2="1221.5426" y1="669.903" y2="669.903"/><line style="stroke:#181818;stroke-width:0.75;" x1="1074" x2="1221.5426" y1="681.903" y2="681.903"/></g><!--class ComplexRule--><g class="entity" data-entity="ComplexRule" data-source-line="41" data-uid="ent0018" id="entity_ComplexRule"><rect fill="#F1F1F1" height="72" rx="3.75" ry="3.75" style="stroke:#181818;stroke-width:0.75;" width="168.8126" x="849.75" y="621.903"/><ellipse cx="872.25" cy="645.903" fill="#A9DCDF" rx="16.5" ry="16.5" style="stroke:#181818;stroke-width:1.5;"/><path d="M872.4141,638.9186 L870.6797,646.5358 L874.1719,646.5358 L872.4141,638.9186 Z M870.1875,635.567 L874.6641,635.567 L879.7031,654.153 L876.0234,654.153 L874.875,649.5592 L869.9531,649.5592 L868.8281,654.153 L865.1719,654.153 L870.1875,635.567 Z " fill="#000000"/><text fill="#000000" font-family="sans-serif" font-size="21" font-style="italic" lengthAdjust="spacing" textLength="120.8126" x="893.25" y="654.0509">ComplexRule</text><line style="stroke:#181818;stroke-width:0.75;" x1="851.25" x2="1017.0626" y1="669.903" y2="669.903"/><line style="stroke:#181818;stroke-width:0.75;" x1="851.25" x2="1017.0626" y1="681.903" y2="681.903"/></g><!--class Board--><g class="entity" data-entity="Board" data-source-line="53" data-uid="ent0026" id="entity_Board"><rect fill="#F1F1F1" height="72" rx="3.75" ry="3.75" style="stroke:#181818;stroke-width:0.75;" width="107.7238" x="1315.5" y="297.903"/><ellipse cx="1338" cy="321.903" fill="#ADD1B2" rx="16.5" ry="16.5" style="stroke:#181818;stroke-width:1.5;"/><path d="M1342.4531,330.3639 Q1341.5859,330.8092 1340.625,331.0202 Q1339.6641,331.2545 1338.6094,331.2545 Q1334.8594,331.2545 1332.8672,328.7936 Q1330.8984,326.3092 1330.8984,321.6217 Q1330.8984,316.9342 1332.8672,314.4498 Q1334.8594,311.9655 1338.6094,311.9655 Q1339.6641,311.9655 1340.625,312.1998 Q1341.6094,312.4342 1342.4531,312.8795 L1342.4531,316.9577 Q1341.5156,316.0905 1340.625,315.692 Q1339.7344,315.2702 1338.7969,315.2702 Q1336.7813,315.2702 1335.75,316.8873 Q1334.7188,318.4811 1334.7188,321.6217 Q1334.7188,324.7623 1335.75,326.3795 Q1336.7813,327.9733 1338.7969,327.9733 Q1339.7344,327.9733 1340.625,327.5748 Q1341.5156,327.153 1342.4531,326.2858 L1342.4531,330.3639 Z " fill="#000000"/><text fill="#000000" font-family="sans-serif" font-size="21" lengthAdjust="spacing" textLength="59.7238" x="1359" y="330.0509">Board</text><line style="stroke:#181818;stroke-width:0.75;" x1="1317" x2="1421.7238" y1="345.903" y2="345.903"/><line style="stroke:#181818;stroke-width:0.75;" x1="1317" x2="1421.7238" y1="357.903" y2="357.903"/></g><!--class FieldState--><g class="entity" data-entity="FieldState" data-source-line="56" data-uid="ent0027" id="entity_FieldState"><rect fill="#F1F1F1" height="72" rx="3.75" ry="3.75" style="stroke:#181818;stroke-width:0.75;" width="144.8096" x="1305.75" y="459.903"/><ellipse cx="1328.25" cy="483.903" fill="#EB937F" rx="16.5" ry="16.5" style="stroke:#181818;stroke-width:1.5;"/><path d="M1334.4141,492.903 L1322.8359,492.903 L1322.8359,474.317 L1334.4141,474.317 L1334.4141,477.5514 L1326.5156,477.5514 L1326.5156,481.5592 L1333.6641,481.5592 L1333.6641,484.7936 L1326.5156,484.7936 L1326.5156,489.6686 L1334.4141,489.6686 L1334.4141,492.903 Z " fill="#000000"/><text fill="#000000" font-family="sans-serif" font-size="21" lengthAdjust="spacing" textLength="96.8096" x="1349.25" y="492.0509">FieldState</text><line style="stroke:#181818;stroke-width:0.75;" x1="1307.25" x2="1449.0596" y1="507.903" y2="507.903"/><line style="stroke:#181818;stroke-width:0.75;" x1="1307.25" x2="1449.0596" y1="519.903" y2="519.903"/></g><!--class Command--><g class="entity" data-entity="Command" data-source-line="63" data-uid="ent0030" id="entity_Command"><rect fill="#F1F1F1" height="72" rx="3.75" ry="3.75" style="stroke:#181818;stroke-width:0.75;" width="145.1456" x="1548.75" y="297.903"/><ellipse cx="1571.25" cy="321.903" fill="#A9DCDF" rx="16.5" ry="16.5" style="stroke:#181818;stroke-width:1.5;"/><path d="M1571.4141,314.9186 L1569.6797,322.5358 L1573.1719,322.5358 L1571.4141,314.9186 Z M1569.1875,311.567 L1573.6641,311.567 L1578.7031,330.153 L1575.0234,330.153 L1573.875,325.5592 L1568.9531,325.5592 L1567.8281,330.153 L1564.1719,330.153 L1569.1875,311.567 Z " fill="#000000"/><text fill="#000000" font-family="sans-serif" font-size="21" font-style="italic" lengthAdjust="spacing" textLength="97.1456" x="1592.25" y="330.0509">Command</text><line style="stroke:#181818;stroke-width:0.75;" x1="1550.25" x2="1692.3956" y1="345.903" y2="345.903"/><line style="stroke:#181818;stroke-width:0.75;" x1="1550.25" x2="1692.3956" y1="357.903" y2="357.903"/></g><!--class MoveCommand--><g class="entity" data-entity="MoveCommand" data-source-line="66" data-uid="ent0031" id="entity_MoveCommand"><rect fill="#F1F1F1" height="72" rx="3.75" ry="3.75" style="stroke:#181818;stroke-width:0.75;" width="205.1844" x="1535.25" y="135.903"/><ellipse cx="1557.75" cy="159.903" fill="#ADD1B2" rx="16.5" ry="16.5" style="stroke:#181818;stroke-width:1.5;"/><path d="M1562.2031,168.3639 Q1561.3359,168.8092 1560.375,169.0202 Q1559.4141,169.2545 1558.3594,169.2545 Q1554.6094,169.2545 1552.6172,166.7936 Q1550.6484,164.3092 1550.6484,159.6217 Q1550.6484,154.9342 1552.6172,152.4498 Q1554.6094,149.9655 1558.3594,149.9655 Q1559.4141,149.9655 1560.375,150.1998 Q1561.3594,150.4342 1562.2031,150.8795 L1562.2031,154.9577 Q1561.2656,154.0905 1560.375,153.692 Q1559.4844,153.2702 1558.5469,153.2702 Q1556.5313,153.2702 1555.5,154.8873 Q1554.4688,156.4811 1554.4688,159.6217 Q1554.4688,162.7623 1555.5,164.3795 Q1556.5313,165.9733 1558.5469,165.9733 Q1559.4844,165.9733 1560.375,165.5748 Q1561.2656,165.153 1562.2031,164.2858 L1562.2031,168.3639 Z " fill="#000000"/><text fill="#000000" font-family="sans-serif" font-size="21" lengthAdjust="spacing" textLength="157.1844" x="1578.75" y="168.0509">MoveCommand</text><line style="stroke:#181818;stroke-width:0.75;" x1="1536.75" x2="1738.9344" y1="183.903" y2="183.903"/><line style="stroke:#181818;stroke-width:0.75;" x1="1536.75" x2="1738.9344" y1="195.903" y2="195.903"/></g><!--class Builder--><g class="entity" data-entity="Builder" data-source-line="73" data-uid="ent0034" id="entity_Builder"><rect fill="#F1F1F1" height="72" rx="3.75" ry="3.75" style="stroke:#181818;stroke-width:0.75;" width="114.5907" x="1848" y="297.903"/><ellipse cx="1870.5" cy="321.903" fill="#A9DCDF" rx="16.5" ry="16.5" style="stroke:#181818;stroke-width:1.5;"/><path d="M1870.6641,314.9186 L1868.9297,322.5358 L1872.4219,322.5358 L1870.6641,314.9186 Z M1868.4375,311.567 L1872.9141,311.567 L1877.9531,330.153 L1874.2734,330.153 L1873.125,325.5592 L1868.2031,325.5592 L1867.0781,330.153 L1863.4219,330.153 L1868.4375,311.567 Z " fill="#000000"/><text fill="#000000" font-family="sans-serif" font-size="21" font-style="italic" lengthAdjust="spacing" textLength="66.5907" x="1891.5" y="330.0509">Builder</text><line style="stroke:#181818;stroke-width:0.75;" x1="1849.5" x2="1961.0907" y1="345.903" y2="345.903"/><line style="stroke:#181818;stroke-width:0.75;" x1="1849.5" x2="1961.0907" y1="357.903" y2="357.903"/></g><!--class StandartBuilder--><g class="entity" data-entity="StandartBuilder" data-source-line="74" data-uid="ent0035" id="entity_StandartBuilder"><rect fill="#F1F1F1" height="72" rx="3.75" ry="3.75" style="stroke:#181818;stroke-width:0.75;" width="203.7144" x="1825.5" y="135.903"/><ellipse cx="1848" cy="159.903" fill="#ADD1B2" rx="16.5" ry="16.5" style="stroke:#181818;stroke-width:1.5;"/><path d="M1852.4531,168.3639 Q1851.5859,168.8092 1850.625,169.0202 Q1849.6641,169.2545 1848.6094,169.2545 Q1844.8594,169.2545 1842.8672,166.7936 Q1840.8984,164.3092 1840.8984,159.6217 Q1840.8984,154.9342 1842.8672,152.4498 Q1844.8594,149.9655 1848.6094,149.9655 Q1849.6641,149.9655 1850.625,150.1998 Q1851.6094,150.4342 1852.4531,150.8795 L1852.4531,154.9577 Q1851.5156,154.0905 1850.625,153.692 Q1849.7344,153.2702 1848.7969,153.2702 Q1846.7813,153.2702 1845.75,154.8873 Q1844.7188,156.4811 1844.7188,159.6217 Q1844.7188,162.7623 1845.75,164.3795 Q1846.7813,165.9733 1848.7969,165.9733 Q1849.7344,165.9733 1850.625,165.5748 Q1851.5156,165.153 1852.4531,164.2858 L1852.4531,168.3639 Z " fill="#000000"/><text fill="#000000" font-family="sans-serif" font-size="21" lengthAdjust="spacing" textLength="155.7144" x="1869" y="168.0509">StandartBuilder</text><line style="stroke:#181818;stroke-width:0.75;" x1="1827" x2="2027.7144" y1="183.903" y2="183.903"/><line style="stroke:#181818;stroke-width:0.75;" x1="1827" x2="2027.7144" y1="195.903" y2="195.903"/></g><!--reverse link GameState to WhiteTurn--><g class="link" data-entity-1="GameState" data-entity-2="WhiteTurn" data-source-line="23" data-uid="lnk10" id="link_GameState_WhiteTurn"><path codeLine="23" d="M553.2664,392.7275 C536.5264,419.2175 527.925,432.813 511.11,459.423" fill="none" id="GameState-backto-WhiteTurn" style="stroke:#181818;stroke-width:1.5;stroke-dasharray:10.5,10.5;"/><polygon fill="none" points="567.69,369.903,545.6582,387.9196,560.8745,397.5354,567.69,369.903" style="stroke:#181818;stroke-width:1.5;"/></g><!--reverse link GameState to BlackTurn--><g class="link" data-entity-1="GameState" data-entity-2="BlackTurn" data-source-line="24" data-uid="lnk11" id="link_GameState_BlackTurn"><path codeLine="24" d="M626.2046,392.6282 C643.1996,419.1182 651.99,432.813 669.06,459.423" fill="none" id="GameState-backto-BlackTurn" style="stroke:#181818;stroke-width:1.5;stroke-dasharray:10.5,10.5;"/><polygon fill="none" points="611.625,369.903,618.6296,397.488,633.7797,387.7683,611.625,369.903" style="stroke:#181818;stroke-width:1.5;"/></g><!--reverse link GameState to EndOfGame--><g class="link" data-entity-1="GameState" data-entity-2="EndOfGame" data-source-line="25" data-uid="lnk12" id="link_GameState_EndOfGame"><path codeLine="25" d="M535.3961,388.1139 C521.6861,400.6389 525.135,395.928 508.5,405.903 C482.655,421.383 415.95,446.283 360.57,465.723" fill="none" id="GameState-backto-EndOfGame" style="stroke:#181818;stroke-width:1.5;stroke-dasharray:10.5,10.5;"/><polygon fill="none" points="555.33,369.903,529.3258,381.4693,541.4664,394.7586,555.33,369.903" style="stroke:#181818;stroke-width:1.5;"/></g><!--reverse link Rule to SimpleRule--><g class="link" data-entity-1="Rule" data-entity-2="SimpleRule" data-source-line="44" data-uid="lnk19" id="link_Rule_SimpleRule"><path codeLine="44" d="M1147.5,558.903 C1147.5,585.393 1147.5,594.813 1147.5,621.423" fill="none" id="Rule-backto-SimpleRule" style="stroke:#181818;stroke-width:1.5;stroke-dasharray:10.5,10.5;"/><polygon fill="none" points="1147.5,531.903,1138.5,558.903,1156.5,558.903,1147.5,531.903" style="stroke:#181818;stroke-width:1.5;"/></g><!--reverse link Rule to ComplexRule--><g class="link" data-entity-1="Rule" data-entity-2="ComplexRule" data-source-line="45" data-uid="lnk20" id="link_Rule_ComplexRule"><path codeLine="45" d="M1082.4856,539.9457 C1066.0156,554.1207 1068.855,554.133 1051.5,567.903 C1026.63,587.628 997.11,606.603 973.365,621.888" fill="none" id="Rule-backto-ComplexRule" style="stroke:#181818;stroke-width:1.5;stroke-dasharray:10.5,10.5;"/><polygon fill="none" points="1102.95,522.333,1076.6147,533.1243,1088.3566,546.7672,1102.95,522.333" style="stroke:#181818;stroke-width:1.5;"/></g><!--link ComplexRule to Rule--><g class="link" data-entity-1="ComplexRule" data-entity-2="Rule" data-source-line="46" data-uid="lnk21" id="link_ComplexRule_Rule"><path codeLine="46" d="M1035.3317,614.5312 C1063.7867,599.0512 1078.44,588.168 1104,567.903 C1117.56,557.148 1125.492,550.9257 1135.572,538.9407" fill="none" id="ComplexRule-Rule" style="stroke:#181818;stroke-width:1.5;"/><polygon fill="#181818" points="1019.52,623.133,1030.2931,624.1026,1035.3317,614.5312,1024.5586,613.5615,1019.52,623.133" style="stroke:#181818;stroke-width:1.5;"/><polygon fill="#181818" points="1141.365,532.053,1128.0837,538.5227,1136.5375,537.7928,1137.2674,546.2466,1141.365,532.053" style="stroke:#181818;stroke-width:1.5;"/></g><!--reverse link ComplexRule to RuleSet--><g class="link" data-entity-1="ComplexRule" data-entity-2="RuleSet" data-source-line="47" data-uid="lnk22" id="link_ComplexRule_RuleSet"><path codeLine="47" d="M910.3877,605.3184 C892.8677,564.5184 878.61,512.163 904.5,459.903 C925.725,417.063 969.525,384.963 1006.455,364.098" fill="none" id="ComplexRule-backto-RuleSet" style="stroke:#181818;stroke-width:1.5;"/><polygon fill="#181818" points="917.49,621.858,919.452,611.2208,910.3877,605.3184,908.4257,615.9556,917.49,621.858" style="stroke:#181818;stroke-width:1.5;"/></g><!--reverse link RuleSet to Rule--><g class="link" data-entity-1="RuleSet" data-entity-2="Rule" data-source-line="48" data-uid="lnk23" id="link_RuleSet_Rule"><path codeLine="48" d="M1093.2998,386.0027 C1106.5448,412.4927 1116.705,432.813 1130.01,459.423" fill="none" id="RuleSet-backto-Rule" style="stroke:#181818;stroke-width:1.5;"/><polygon fill="#181818" points="1085.25,369.903,1083.9084,380.6361,1093.2998,386.0027,1094.6415,375.2695,1085.25,369.903" style="stroke:#181818;stroke-width:1.5;"/></g><!--link RuleSet to Iterator--><g class="link" data-entity-1="RuleSet" data-entity-2="Iterator" data-source-line="49" data-uid="lnk24" id="link_RuleSet_Iterator"><path codeLine="49" d="M1051.08,369.903 C1038.075,396.393 1032.0986,408.5712 1019.0486,435.1812" fill="none" id="RuleSet-to-Iterator" style="stroke:#181818;stroke-width:1.5;stroke-dasharray:10.5,10.5;"/><polygon fill="none" points="1007.16,459.423,1027.1291,439.1441,1010.968,431.2184,1007.16,459.423" style="stroke:#181818;stroke-width:1.5;"/></g><!--reverse link Board to FieldState--><g class="link" data-entity-1="Board" data-entity-2="FieldState" data-source-line="59" data-uid="lnk28" id="link_Board_FieldState"><path codeLine="59" d="M1372.4676,387.8742 C1373.9676,414.3642 1375.02,432.813 1376.52,459.423" fill="none" id="Board-backto-FieldState" style="stroke:#181818;stroke-width:1.5;"/><polygon fill="#181818" points="1371.45,369.903,1365.9684,379.2278,1372.4676,387.8742,1377.9492,378.5494,1371.45,369.903" style="stroke:#181818;stroke-width:1.5;"/></g><!--link MoveCommand to Command--><g class="link" data-entity-1="MoveCommand" data-entity-2="Command" data-source-line="69" data-uid="lnk32" id="link_MoveCommand_Command"><path codeLine="69" d="M1634.415,207.903 C1631.67,234.393 1630.6755,243.957 1627.9155,270.567" fill="none" id="MoveCommand-to-Command" style="stroke:#181818;stroke-width:1.5;"/><polygon fill="none" points="1625.13,297.423,1636.8675,271.4955,1618.9635,269.6385,1625.13,297.423" style="stroke:#181818;stroke-width:1.5;"/></g><!--link StandartBuilder to Builder--><g class="link" data-entity-1="StandartBuilder" data-entity-2="Builder" data-source-line="75" data-uid="lnk36" id="link_StandartBuilder_Builder"><path codeLine="75" d="M1922.625,207.903 C1918.875,234.393 1917.4975,244.0792 1913.7325,270.6892" fill="none" id="StandartBuilder-to-Builder" style="stroke:#181818;stroke-width:1.5;"/><polygon fill="none" points="1909.95,297.423,1922.6438,271.9501,1904.8213,269.4284,1909.95,297.423" style="stroke:#181818;stroke-width:1.5;"/></g><!--reverse link Game to RuleSet--><g class="link" data-entity-1="Game" data-entity-2="RuleSet" data-source-line="78" data-uid="lnk37" id="link_Game_RuleSet"><path codeLine="78" d="M1173.0982,220.9962 C1148.1082,247.4862 1126.11,270.813 1101,297.423" fill="none" id="Game-backto-RuleSet" style="stroke:#181818;stroke-width:1.5;"/><polygon fill="none" points="1185.45,207.903,1174.9097,210.3323,1173.0982,220.9962,1183.6385,218.5669,1185.45,207.903" style="stroke:#181818;stroke-width:1.5;"/></g><!--reverse link Game to Board--><g class="link" data-entity-1="Game" data-entity-2="Board" data-source-line="79" data-uid="lnk38" id="link_Game_Board"><path codeLine="79" d="M1263.2942,220.9371 C1288.5242,247.4271 1310.82,270.813 1336.17,297.423" fill="none" id="Game-backto-Board" style="stroke:#181818;stroke-width:1.5;"/><polygon fill="#181818" points="1250.88,207.903,1252.7424,218.5581,1263.2942,220.9371,1261.4318,210.282,1250.88,207.903" style="stroke:#181818;stroke-width:1.5;"/></g><!--link Game to GameState--><g class="link" data-entity-1="Game" data-entity-2="GameState" data-source-line="80" data-uid="lnk39" id="link_Game_GameState"><path codeLine="80" d="M1146.3267,177.5519 C1069.7367,182.7719 943.305,195.243 825,228.903 C765.51,245.823 709.5203,270.724 663.2603,293.704" fill="none" id="Game-GameState" style="stroke:#181818;stroke-width:1.5;"/><polygon fill="#181818" points="1164.285,176.328,1154.8978,170.9538,1146.3267,177.5519,1155.7138,182.9261,1164.285,176.328" style="stroke:#181818;stroke-width:1.5;"/><polygon fill="#181818" points="655.2,297.708,669.9597,297.0755,661.9169,294.3713,664.6211,286.3285,655.2,297.708" style="stroke:#181818;stroke-width:1.5;"/></g><!--reverse link Game to Player--><g class="link" data-entity-1="Game" data-entity-2="Player" data-source-line="81" data-uid="lnk40" id="link_Game_Player"><path codeLine="81" d="M1146.0753,173.7362 C943.9803,174.9512 256.455,182.373 168,228.903 C139.725,243.783 118.485,273.663 105.105,297.513" fill="none" id="Game-backto-Player" style="stroke:#181818;stroke-width:1.5;"/><polygon fill="#181818" points="1164.075,173.628,1155.0391,167.6822,1146.0753,173.7362,1155.1112,179.682,1164.075,173.628" style="stroke:#181818;stroke-width:1.5;"/></g><!--link Game to Command--><g class="link" data-entity-1="Game" data-entity-2="Command" data-source-line="82" data-uid="lnk41" id="link_Game_Command"><path codeLine="82" d="M1271.49,178.668 C1324.755,185.358 1407.945,199.713 1474.5,228.903 C1513.95,246.198 1546.5876,269.2568 1574.7426,292.0718" fill="none" id="Game-to-Command" style="stroke:#181818;stroke-width:1.5;"/><polygon fill="#181818" points="1581.735,297.738,1575.0238,284.577,1575.908,293.0161,1567.4689,293.9003,1581.735,297.738" style="stroke:#181818;stroke-width:1.5;"/></g><!--link Game to Builder--><g class="link" data-entity-1="Game" data-entity-2="Builder" data-source-line="83" data-uid="lnk42" id="link_Game_Builder"><path codeLine="83" d="M1271.31,180.258 C1329.9,187.668 1426.8,199.518 1510.5,207.903 C1567.08,213.573 1712.295,208.863 1765.5,228.903 C1805.295,243.888 1836.898,267.7332 1863.253,291.5532" fill="none" id="Game-to-Builder" style="stroke:#181818;stroke-width:1.5;"/><polygon fill="#181818" points="1869.93,297.588,1863.9377,284.0846,1864.3659,292.559,1855.8914,292.9872,1869.93,297.588" style="stroke:#181818;stroke-width:1.5;"/></g><!--SRC=[XLDDJuGm4BtlhvYp2IGUl9azi5cDXur6J3mFT5R9bdPJYj6u_7TfeH-m42-4lZTzR-QrpKla1BVftUQCvGa_20wI4OVVpGQWvDWqy8WrzMk0Bc0l77z81THjpZLgQYmEK0bDweWbMGbBZOpTuxJUFojDRwqIIsJ6U-KrSY_Oyz6tvydWTdz9qw2_H7hz9TBhpyTKBVTJ3gsyzaXEUjf82E2f_q4jrHfljayvB1gjiDIZVbxLPqx_bksaAVk-hhE87IeepOXehsLYhPiasGwrIvIRtWkQ91m-0TFqilLXp5Cj92esIJMBa76GlMXhUAY8iuKBDTGRvr1XNG0YdrBMDGhc3j17k1jmBsc-KJC7-KMh9J6P9FsGu-BQlMWhpaZDpJC7Tv5bFu1WgFICdCFMS5ouKEsp03avd04pyTYW768Frr_z21sVkKDCMHZBGywu-mC0]--></g></svg>